<?xml version="1.0" encoding="UTF-8"?>
<svg width="70px" height="40px" viewBox="0 0 70 40" version="1.1" xmlns="http://www.w3.org/2000/svg" xmlns:xlink="http://www.w3.org/1999/xlink">
    <!-- Generator: Sketch 43.1 (39012) - http://www.bohemiancoding.com/sketch -->
    <title>foxnews-network-logo</title>
    <desc>Created with Sketch.</desc>
    <defs></defs>
    <g id="Page-1" stroke="none" stroke-width="1" fill="none" fill-rule="evenodd">
        <g id="foxnews-network-logo" fill-rule="nonzero">
            <g id="Fox_News_Channel_logo" transform="translate(18.000000, 4.000000)">
                <rect id="Rectangle-path" fill="#183A52" x="0.0670225321" y="0.0416414874" width="33.9177419" height="27.0496278"></rect>
                <path d="M32.553861,16.8033084 L33.7028142,19.1605019 L33.92754,19.0509651 L32.7785868,16.6937715 L32.553861,16.8033084 Z M0.21325835,3.91066969 C9.45940172,0.644935907 18.1880889,2.61373581 24.3367939,7.35068613 L24.4893668,7.15264191 C18.277619,2.36712358 9.46228833,0.378780789 0.129999161,3.67494123 L0.21325835,3.91066969 Z" id="Shape" fill="#FFFFFF"></path>
                <rect id="Rectangle-path" fill="#BB0000" x="0.0670225321" y="27.760004" width="33.9177419" height="4.20347395"></rect>
                <g id="Group" transform="translate(0.067024, 0.041642)">
                    <path d="M5.59546774,0.00597910323 L0.000274193548,26.5722074 L0.000274193548,27.032324 L0.00825377419,27.0321602 L9.4635441,0.00600639851 L5.59549571,0.00600639851 L5.59546774,0.00597910323 Z M13.0557258,0.0223988551 L0.0652580645,27.0646569 L0.211192097,27.0646569 L0.211138629,27.0485571 L4.91438056,19.6542643 L4.91438056,17.4908399 L6.27668379,17.4908399 L11.2719419,9.64453722 L11.2719419,7.27129404 L12.8288402,7.27129404 L17.4023886,0.0222121553 L13.0558725,0.0222121553 L13.0557258,0.0223988551 Z M21.5705323,7.59165444 C19.0900611,7.59165444 17.0792419,9.56563431 17.0792419,12.0006619 C17.0792419,14.4356895 19.0900611,16.4096693 21.5705323,16.4096693 C24.0510034,16.4096693 26.0618226,14.4356895 26.0618226,12.0006619 C26.0618226,9.56563431 24.0510034,7.59165444 21.5705323,7.59165444 L21.5705323,7.59165444 Z M11.550129,7.60988687 L11.550129,16.3159911 L14.105229,16.3159911 L14.105229,13.4966611 L16.6257258,13.4966611 L16.6257258,11.1461276 L14.1329226,11.1461276 L14.1329226,9.98121938 L17.2003258,9.98121938 L17.0133697,7.60999605 L11.5706277,7.60999605 L11.550117,7.60994146 L11.550129,7.60988687 Z M24.8688065,7.62497379 L27.3755935,11.821351 L24.7756355,16.2958671 L27.5271677,16.2958671 L28.7710468,14.1561624 L30.0556435,16.3128175 L32.88395,16.315375 L30.1702839,11.7832659 L32.5901516,7.63956858 L29.8090065,7.63956858 L28.75465,9.40884898 L27.6644565,7.6249656 L24.868779,7.6249656 L24.8688065,7.62497379 Z M30.2172258,17.5320706 C30.0410455,17.5330696 29.8541387,17.5448824 29.6558145,17.5685343 C28.2387823,17.737544 27.5662952,18.5421572 27.3163952,19.6119959 C27.1322221,20.9818098 27.5370387,21.3908842 27.94715,21.7581969 C28.4619758,22.2192961 29.1865597,22.4371944 29.9769774,22.6600604 C30.4640548,22.797383 31.0291952,22.9398917 30.9517629,23.4820033 C30.9158737,23.7332619 30.7549906,23.9511001 30.1145677,23.9158619 C29.2284016,23.9224946 29.0558242,23.4349735 28.8531129,22.9683061 L26.9609032,23.3907006 L26.9607935,23.3905914 C27.2102247,24.5856063 27.9552113,25.3620207 28.8873871,25.6167676 C30.2906548,26.0002663 31.1915726,25.7728912 31.9276452,25.3200405 C32.8943419,24.7253582 33.3969661,23.49445 32.9909403,22.1786262 C32.8217355,21.6302912 32.4065242,21.2010182 31.7685306,20.9657329 C31.3753645,20.8207676 30.987929,20.6304103 30.0342016,20.4339115 C29.6408161,20.3528718 29.3348435,20.1489214 29.3690629,19.8631125 C29.3912452,19.6779167 29.5262169,19.2728793 30.1947419,19.2809041 C30.733121,19.2873458 30.9632516,19.7346609 31.2039661,20.091383 L32.9699919,19.532048 C32.6223694,18.519775 31.9203242,17.5223507 30.2173629,17.5320405 L30.2172258,17.5320706 Z M21.9845645,17.7632807 L21.055679,22.4553403 L20.0694323,17.7747448 L18.0166823,17.7747448 L19.8859694,25.7092113 L21.7667177,25.7092113 L22.6841419,21.1997572 L23.6245435,25.7433304 L25.4593919,25.7433304 L27.3401403,17.7747448 L25.6772661,17.7747448 L24.6910194,22.3868291 L23.7162339,17.7632807 L21.9845919,17.7632807 L21.9845645,17.7632807 Z M12.4642903,17.785938 L12.4642903,25.7201316 L17.6937097,25.7201316 L17.6937097,23.9049951 L14.4595968,23.9049951 L14.4595968,22.5236626 L17.0628177,22.5236626 L17.0628177,20.8112656 L14.4710581,20.8112656 L14.4710581,19.6353847 L17.6248323,19.6353847 L17.6248323,17.7860199 L12.4642355,17.7860199 L12.4642903,17.785938 Z M9.96912903,17.8017715 L9.96912903,21.8084464 L7.56020161,17.8115978 L5.23934516,17.8115978 L5.23934516,25.7272305 L7.27619194,25.7272305 L7.28599216,21.1844762 L10.0102422,25.7272305 L11.9668051,25.7272305 L11.9668051,17.8017715 L9.96911313,17.8017715 L9.96912903,17.8017715 Z M32.0798226,28.5359154 L32.0798226,31.299563 L33.0737742,31.299563 L33.0737742,28.5359154 L32.0798226,28.5359154 Z M6.18525806,28.5534007 L6.18525806,31.3336985 L7.18376129,31.3336985 L7.18376129,30.0347705 C7.18861452,29.9145893 7.28116581,29.7438573 7.65877419,29.7162891 C7.93751935,29.6831526 8.14349355,29.862933 8.14349355,30.0106141 L8.14349355,31.3336985 L9.13711613,31.3336985 L9.13711613,29.861036 C9.10670806,29.4982816 8.90923387,29.2288226 8.17255806,29.2096886 C7.83609516,29.2009541 7.5089,29.2487973 7.21282581,29.5329739 L7.18861973,29.5329739 L7.18861973,28.553428 L6.18523585,28.553428 L6.18525806,28.5534007 Z M2.47953226,29.1909913 C1.60852903,29.2104638 1.15539677,29.4926588 0.978322581,29.9484355 C0.823534839,30.3665993 0.874057742,30.7538102 1.32106452,31.0811898 C1.81809516,31.3993437 2.23829677,31.3732494 2.6646129,31.3746141 C3.59900968,31.3000571 3.81614355,30.9557407 3.9396129,30.576227 L2.95937097,30.576227 C2.8550979,30.7411834 2.74783887,30.9056538 2.41783871,30.8696514 C2.05656129,30.8302397 1.89898226,30.5622792 1.92429032,30.2759789 C1.97298984,29.7249144 2.26322097,29.7016042 2.45935161,29.6979739 C2.80272419,29.6781494 2.86085323,29.8318273 2.93880645,29.9825546 L3.96703226,29.9825546 C3.81682355,29.5391973 3.46525806,29.2004082 2.47953226,29.1909913 Z M28.5290161,29.2128494 C27.3896597,29.2152241 26.9844839,29.7674623 26.9935323,30.3046608 L26.9934226,30.3046608 C26.9934226,30.3066806 26.9936968,30.308665 26.9936968,30.3106849 C27.0101758,30.8808288 27.3265952,31.3206923 28.4673226,31.3691687 C29.2297726,31.4015682 29.7738,31.2058556 30.0782097,30.6936104 L29.1116774,30.6936104 C28.9916382,30.8029635 28.9303779,30.9188593 28.5564355,30.9051489 C28.1824903,30.8914466 28.008679,30.7064774 28.0423226,30.4479529 L30.1193387,30.4479529 C30.1587952,29.6179851 29.6045677,29.210603 28.5290161,29.2128412 L28.5290161,29.2128494 Z M23.7676452,29.2189799 C23.4535565,29.2210543 23.1581952,29.2658868 22.8662339,29.5260519 C22.8409919,29.5411298 22.8079677,29.5644836 22.8079677,29.5328757 L22.8079677,29.2701586 L21.8277258,29.2701586 L21.8277258,31.3036573 L22.8353871,31.3036573 L22.8353871,30.0787814 C22.8353871,29.8641449 23.0622055,29.7247342 23.3357903,29.7137069 C23.709379,29.6986399 23.7984919,29.9183397 23.7984919,30.0378385 L23.7984919,31.3104811 L24.7753065,31.3104811 L24.7753065,29.8194762 C24.7753065,29.518764 24.5350498,29.2139303 23.7676452,29.2189799 Z M18.5552258,29.2217094 C18.2411371,29.2237839 17.9457758,29.2686164 17.6538145,29.5287814 C17.6285725,29.5438593 17.5955484,29.5672131 17.5955484,29.5356052 L17.5955484,29.2728881 L16.6153065,29.2728881 L16.6153065,31.3063868 L17.6229677,31.3063868 L17.6229677,30.0815109 C17.6229677,29.8668744 17.8497889,29.7274638 18.123371,29.7164365 C18.4969597,29.7013695 18.5860726,29.9210692 18.5860726,30.040568 L18.5860726,31.3132107 L19.5628871,31.3132107 L19.5628871,29.8222057 C19.5628871,29.5214935 19.3226305,29.2166598 18.5552258,29.2217094 Z M12.867629,29.2253888 C12.2359968,29.2596226 11.56425,29.2379092 11.3699016,29.8815948 L12.2860371,29.8815948 C12.3718679,29.7274201 12.5280074,29.6597087 12.7561694,29.6692566 C12.9064795,29.6755454 13.0986097,29.6711399 13.1778516,29.7658027 C13.2710473,29.8771866 13.2313139,30.0165672 12.9209569,30.045634 C11.6491102,30.1647615 11.2638956,30.3541253 11.272944,30.745294 C11.279253,31.0182742 11.4113789,31.2525223 11.8933618,31.3532419 C12.1959344,31.4164742 12.7594021,31.3986586 13.1924085,31.1120089 C13.2200198,31.1071122 13.2299045,31.1110263 13.2456953,31.1120089 C13.2368827,31.2200655 13.2610614,31.2788541 13.3038545,31.3098479 L14.3217432,31.3098479 L14.3217432,31.2616007 C14.2549524,31.2144372 14.1861134,31.1713543 14.1569584,31.0492625 L14.1569584,29.9491261 C14.0966797,29.3833221 13.5849084,29.2140367 12.8676181,29.2253643 L12.867629,29.2253888 Z" id="Shape" fill="#FFFFFF"></path>
                    <path d="M28.5846774,29.647934 C28.2255661,29.6549598 28.036729,29.8115638 27.9883065,30.0914824 L29.1399194,30.0914824 C29.1555511,29.8009241 28.9527466,29.6383807 28.5846774,29.647934 Z M13.1615645,30.3453559 C12.8826,30.4623899 12.6746516,30.4634489 12.4349516,30.4988919 C12.2816829,30.5215551 12.2029126,30.6571718 12.2121694,30.7479613 C12.220121,30.825933 12.3364092,30.9256782 12.438379,30.9458522 C12.7547435,31.0084457 13.00585,30.9344072 13.182129,30.7274899 C13.2383195,30.6615335 13.2334361,30.543244 13.206121,30.3487678 L13.1615645,30.3453559 Z" id="Shape" fill="#BB0000"></path>
                    <path d="M20.781129,9.92620347 L20.7742029,13.7931266 C20.8376815,14.267 21.1947335,14.5484417 21.5151287,14.5513623 C22.1382884,14.5570528 22.2381771,14.1530149 22.3183513,13.8137891 L22.3183513,10.0432184 C22.2620319,9.74168734 22.0975103,9.32939206 21.5774255,9.29876675 C21.2879594,9.28172139 20.8682513,9.55495757 20.7811126,9.9260397 L20.781129,9.92620347 Z" id="Shape" fill="#183A52"></path>
                </g>
            </g>
        </g>
    </g>
</svg>