<?xml version="1.0" encoding="UTF-8"?>
<svg width="70px" height="40px" viewBox="0 0 70 40" version="1.1" xmlns="http://www.w3.org/2000/svg" xmlns:xlink="http://www.w3.org/1999/xlink">
    <!-- Generator: Sketch 43.1 (39012) - http://www.bohemiancoding.com/sketch -->
    <title>espnews-network-logo</title>
    <desc>Created with Sketch.</desc>
    <defs></defs>
    <g id="Page-1" stroke="none" stroke-width="1" fill="none" fill-rule="evenodd">
        <g id="espnews-network-logo" fill-rule="nonzero" fill="#CC0000">
            <g id="ESPNews" transform="translate(0.000000, 15.000000)">
                <path d="M60.1201201,3.79429429 L67.2952953,3.79429429 C68.9958959,3.79429429 69.5025025,4.27882883 69.3217217,5.67777778 L69.0945546,7.8467968 C68.9544144,8.91536537 68.0084685,9.73868869 66.6421021,9.73868869 L59.5054655,9.73868869 L59.802983,7.1495996 L66.1303103,7.1495996 L66.2408809,6.00990991 L62.8957357,6.00990991 C61.2613514,6.00990991 60.0512412,5.9315015 60.0512412,4.32542543 L60.1035135,3.79464464 L60.1201201,3.79429429 Z M70,0.0245245245 L63.5850851,0.0245245245 C61.6574575,0.0245245245 60.5093594,0.512912913 60.3566066,1.9461962 L60.242007,2.76251251 L69.697963,2.76251251 L69.9782432,0.0245245245 L70,0.0245245245 Z M39.2042042,3.77677678 L47.539039,3.77677678 L47.2736837,6.01621622 L42.070981,6.01621622 L41.9483584,7.13383383 L47.1510611,7.13383383 L46.8455205,9.72292292 L38.5176927,9.72292292 L39.2050801,3.77747748 L39.2042042,3.77677678 Z M51.011011,2.74184184 L50.8662813,0.0119119119 L39.592007,0.0119119119 L39.2864665,2.7498999 L51.0091892,2.74184184 L51.011011,2.74184184 Z M56.7567568,2.74184184 L57.5345345,0.0119119119 L60.4231732,0.0119119119 L59.6933934,2.74184184 L56.7564064,2.74184184 L56.7567568,2.74184184 Z M51.9219219,2.74184184 L52.7627628,0.0122622623 L55.5851852,0.0122622623 L55.8445145,2.74219219 L51.9065766,2.74219219 L51.9219219,2.74184184 Z M53.5685686,6.08208208 L53.9483483,9.73623624 L57.7496496,9.73623624 L59.4019019,3.78028028 L56.481031,3.78028028 L56.0648148,5.29204204 L55.9361662,3.78028028 L51.5988288,3.78028028 L51.1384685,5.29204204 L51.0640891,3.78028028 L48.1313063,3.78028028 L48.5166917,9.74324324 L52.4195946,9.74324324 L53.5613864,6.08558559 L53.5685686,6.08208208 Z M29.1491491,2.74604605 L29.4546547,0.014014014 L36.1218218,0.014014014 C38.6587087,0.014014014 38.7732733,0.890590591 38.6166667,2.74604605 L29.1502002,2.74604605 L29.1491491,2.74604605 Z M37.8028028,9.73973974 L34.6668168,9.73973974 L35.3342342,3.78028028 L38.4782783,3.78028028 L37.7775776,9.73973974 L37.8028028,9.73973974 Z M29.0335335,3.78028028 L32.1775776,3.78028028 L31.4919419,9.72922923 L28.36997,9.72922923 L29.0331832,3.78028028 L29.0335335,3.78028028 Z M9.497998,3.79429429 L16.6696697,3.79429429 C18.3744745,3.79429429 18.887037,4.27077077 18.708008,5.67777778 L18.4667918,7.84469469 C18.3476727,8.91326326 17.3947197,9.73658659 16.0318569,9.73658659 L8.89522022,9.73658659 L9.19273774,7.1474975 L15.5200651,7.1474975 L15.6266066,6.00570571 L12.2814615,6.00570571 C10.6631932,6.00570571 9.43906907,5.92932933 9.43906907,4.32332332 L9.49333834,3.79254254 L9.497998,3.79429429 Z M19.4584585,3.79429429 L28.493994,3.79429429 L28.4537738,4.13802302 C28.3170671,5.42065566 28.0256456,6.03166667 26.3190891,6.03166667 L22.3531231,6.03166667 L21.9221922,9.73837337 L18.7883083,9.73837337 L19.4578278,3.79292793 L19.4584585,3.79429429 Z M28.7147147,2.76216216 L28.7952953,2.01451451 C28.95996,0.585085085 27.7827828,0.0245245245 26.9209209,0.0245245245 L12.962963,0.0245245245 C11.0353353,0.0245245245 9.87742743,0.511161161 9.71661662,1.9461962 L9.62615616,2.76251251 L28.7167467,2.76251251 L28.7147147,2.76216216 Z M0.667417417,3.79429429 L9.00925926,3.79429429 L8.76191191,6.03163163 L3.5451952,6.03163163 L3.43063063,7.14924925 L8.62632633,7.14924925 L8.31801802,9.73833834 L0.000700700701,9.73833834 L0.668118118,3.79289289 L0.667417417,3.79429429 Z M1.07942943,0.0283783784 L9.4492993,0.0283783784 L9.16183684,2.76636637 L0.788463463,2.76636637 L1.0796046,0.0283783784 L1.07942943,0.0283783784 Z" id="Shape"></path>
            </g>
        </g>
    </g>
</svg>