<?xml version="1.0" encoding="UTF-8"?>
<svg width="70px" height="40px" viewBox="0 0 70 40" version="1.1" xmlns="http://www.w3.org/2000/svg" xmlns:xlink="http://www.w3.org/1999/xlink">
    <!-- Generator: Sketch 43.1 (39012) - http://www.bohemiancoding.com/sketch -->
    <title>espn2-network-logo</title>
    <desc>Created with Sketch.</desc>
    <defs></defs>
    <g id="Page-1" stroke="none" stroke-width="1" fill="none" fill-rule="evenodd">
        <g id="espn2-network-logo" fill-rule="nonzero" fill="#CC0000">
            <g id="ESPN2_logo" transform="translate(5.000000, 15.000000)">
                <path d="M50.3229361,0.127363501 L58.3742014,0.127363501 C58.3742014,0.127363501 60.1162083,0.0447135472 59.9938426,1.43059982 L59.5745894,5.45404008 C59.5745894,5.45404008 59.4261457,6.65756674 58.2365901,6.65756674 L53.4422598,6.65756674 L53.3134748,7.93977055 L59.3234387,7.93977055 L59.0287579,10.7285249 L49.0388981,10.7285249 L49.6523316,5.7079881 C49.6523316,5.7079881 49.7265535,4.25869273 51.068966,4.25869273 L55.8231764,4.25869273 L55.925763,2.98934211 L49.971967,2.98934211 L50.3229361,0.127363501 Z M10.5581585,6.97266483 L10.9074024,4.21779619 L0.72897893,4.21779619 L0,10.9988315 L10.0660877,10.9988315 L10.4415299,7.87978897 L4.39947009,7.87978897 L4.54791379,6.97266483 L10.5618897,6.97266483 L10.5581585,6.97266483 Z M11.3886408,4.21896466 C11.3340777,4.49865803 11.2991333,5.09181361 11.4956005,5.81665604 C11.805567,6.90800935 12.9996963,6.8464698 12.9996963,6.8464698 L18.4881012,6.78290489 L18.2916741,7.882827 L11.0018848,7.910364 L10.6789195,10.9998053 L19.9265608,10.9998053 C20.6423002,10.9998053 21.5899327,10.4447808 22.0460961,9.14154451 C22.1224845,8.87454854 22.441157,6.020165 22.4346174,5.8293145 C22.3997131,5.09200836 21.978454,4.49842433 21.3878887,4.21876992 L11.3886408,4.21896466 Z M34.2730427,4.21896466 L33.5396506,11 L37.4272707,11 L38.2762082,4.21896466 L34.2730427,4.21896466 Z M41.6430718,4.21896466 L40.9096797,11 L44.8145514,11 L45.6550637,4.21896466 L41.6430718,4.21896466 Z M45.8556633,3.11281071 L45.8644095,1.25883436 C45.7440497,0.508285532 45.1823708,0.0763402025 44.2997326,0 L34.7752638,0 L34.4347661,3.11281071 L45.872955,3.11281071 L45.8556633,3.11281071 Z M22.32172,11 L26.2442445,11 L26.6787432,6.75844487 L32.0467884,6.75844487 C33.2889011,6.57834431 33.8257056,5.21800864 33.8541907,4.21779619 L23.0607289,4.21838043 L22.32172,11 Z M33.9725445,1.01267616 C33.6275132,0.425713476 33.214278,0.0763402025 32.4519996,0 L13.7400693,0 C13.0179107,0.0634870052 12.6207235,0.315643368 12.0991646,0.955421004 C11.6779054,1.45163232 11.5535337,2.65515898 11.5174258,3.11281071 L34.0403471,3.11281071 C34.0993234,2.65515898 34.219282,1.43683167 33.9725445,1.01267616 L33.9725445,1.01267616 Z M11.4351799,0 L1.19657659,0 L0.860451905,3.11281071 L11.0553245,3.11281071 L11.4351799,0 Z" id="Shape"></path>
            </g>
        </g>
    </g>
</svg>