<svg width="210" height="46" fill="none" xmlns="http://www.w3.org/2000/svg"><path fill-rule="evenodd" clip-rule="evenodd" d="M4.48 27.74h2.144v.004c2.105 0 3.8.938 3.8 3.377v5.818H7.073v-5.386c-.006-.475-.404-.859-.897-.864H4.227c-.493.006-.89.39-.896.864v5.37H0V23.587h3.348v4.341s.372-.187 1.132-.187zm24.648 9.199h-3.35V23.586h3.35v13.353zm-10.134-2.952c.492-.005.89-.388.895-.862 0-.165 0-5.38-.02-5.38h3.352v5.652c0 2.082-1.267 3.527-3.352 3.527h-3.273c-2.26 0-3.8-1.22-3.8-3.527v-5.651h3.352v5.379c.006.474.404.857.897.862h1.948zm19.742-6.247v5.384c-.005.474-.403.857-.896.862h-1.948c-.493-.005-.89-.388-.896-.862v-5.38h-3.351v5.652c0 2.307 1.54 3.526 3.8 3.526h3.273c2.084 0 3.35-1.444 3.35-3.526v-5.652l-3.332-.004zM84.019 30.54c.056.491-.075 1.419-.098 1.541a6.8 6.8 0 01-.299 1.011c-.161.357-.342.705-.54 1.043a8.691 8.691 0 01-1.528 1.805c-1.676 1.396-4.27 2.19-6.496 2.453a17.186 17.186 0 01-4.845-.136c-.55-.096-1.37-.273-1.37-.273s0 .316-.024.545c-.03.156-.078.308-.142.454a.744.744 0 01-.584.409 1.804 1.804 0 01-1-.048c-.509-.206-.691-.664-.78-1.192a20.674 20.674 0 01-.142-1.159s-.38-.173-.698-.325c-.95-.455-1.857-.99-2.71-1.598a34.132 34.132 0 01-1.4-1.131c-.596-.545-1.133-1.09-1.542-1.784-.317-.545-.407-1.027-.167-1.602.334-.803 1.529-1.408 2.348-1.752.6-.257 2.468-.844 3.244-.954.366-.052.935-.15.97-.172a.177.177 0 00.034-.03c.019-.024.048-.817.043-1.11-.006-.293.219-2.164.293-2.56.038-.216.206-1.043.379-1.26.113-.145.313-.136.475-.038.889.533 1.16 2.38 1.226 3.32.04.573.06 1.436.06 1.436s1.02-.029 1.648-.013c.643.028 1.283.096 1.916.205.81.124 2.392.456 3.299.898.746.365 1.445.98 1.671 1.635.21.595.178 1.007-.142 1.545-.359.606-1.041 1.057-1.732 1.09-.205.01-.979-.087-1.218-.273a.2.2 0 01-.02-.285c.026-.03.386-.215.6-.322.102-.052.197-.116.283-.19.178-.151.337-.317.32-.51-.024-.253-.302-.41-.566-.508-1.237-.474-3.71-.866-4.904-.934-.466-.028-1.132-.05-1.132-.05l.142 6.35s.549.102.982.169a26.88 26.88 0 001.582.136c2.131.055 4.51-.128 6.466-1.018.857-.39 1.646-.873 2.243-1.528a4.334 4.334 0 001.088-3.295c-.119-1.356-1.11-2.963-1.9-3.942-2.09-2.588-5.67-4.715-8.821-5.962-3.217-1.273-6.395-2.006-9.808-2.128-.88-.032-2.8.01-3.769.272l-.146.041c-.091.026-.18.052-.261.07-.108.025-.211.067-.306.122a.525.525 0 00-.048.045c.038.02.076.04.116.056.061.025.238.045.419.065.124.014.25.028.34.044a.738.738 0 01.492.272.273.273 0 010 .353c-.22.258-1.047.214-1.415.158-.368-.056-.85-.169-.937-.486-.1-.375.085-.74.283-1.08.4-.68.974-1.03 1.814-1.25 1.25-.321 2.53-.515 3.821-.58 2.547-.09 4.953.337 7.428 1.06 1.58.472 3.123 1.05 4.62 1.73a36.74 36.74 0 013.361 1.823c.272.172 1.86 1.294 2.106 1.492.515.409 1.188.988 1.674 1.453.944.9 2.116 2.278 2.689 3.373.055.102.104.202.154.305.079.163.16.33.27.513.143.293.264.596.364.906l.028.111c.038.16.08.33.087.338.056.275.094.553.112.833v-.002zm.62-4.644c.08-.157.17-.309.272-.453l.02.006c.011-.013.072.019.119.054.16.055.326.096.495.122.1.006.203.023.307.04.095.015.19.03.285.039.635.055 1.5-.142 2.066-.353 1.273-.48 2.264-1.17 3.254-2.152.582-.57 1.093-1.507.906-2.361a1.729 1.729 0 00-.663-1.022 2.502 2.502 0 00-.944-.432 1.025 1.025 0 01-.248-.053.716.716 0 01-.134-.147c-.27-.29-.61-.51-.991-.64-.977-.326-2.281-.08-3.171.282-.93.373-1.771.927-2.47 1.626-.656.682-1.163 1.53-1.11 2.453.027.35.122.693.282 1.008.046.078.105.159.166.24.11.151.225.306.259.457.016.16.02.323.01.485.01.385.18.75.474 1.012a.433.433 0 00.611.018.91.91 0 00.205-.23zm-.029-3.405c-.225.303-.508.702-.508.702l-.002.001s-.06-.118-.098-.208c-.26-.63.321-1.337.849-1.772.32-.264.96-.674 1.395-.756.184-.035.51-.068.51-.068s-.208.165-.384.31c-.647.539-1.237 1.14-1.762 1.791zm9.727 8.017l-.103-.014h-.014l-3.58-.408a.86.86 0 01-.104-.017 2.228 2.228 0 00-.085-.014c-.24-.038-.761-.12-.54-.358.127-.084.272-.14.424-.167 1.234-.325 2.722-.374 4.111-.42.436-.014.862-.028 1.267-.05l.021-.002c.39-.023 1.223-.074 1.64-.199.41-.103.726-.419.818-.817.045-.224-.065-.329-.283-.44-1.41-.716-3.733-.717-5.17-.545-1.487.177-3.468.622-4.317 1.797-.324.447-.507 1.136-.365 1.696.102.318.34.58.655.718.315.12.644.2.98.235.263.037 1.202.114 2 .18l.521.043c.821.066 2.406.232 3.255.575 0 0 .805.273.805.717a.68.68 0 01-.346.515c-1.27.868-3.008 1.114-4.564 1.09-.51 0-1.015-.103-1.482-.303-.228-.095-.525-.324-.483-.57.093-.473.632-.595 1.083-.554a3.5 3.5 0 01.828.218c.208.08.392.156.562.227.641.266 1.07.444 1.763.343.326-.052 1.458-.285 1.61-.733a.306.306 0 00-.1-.31c-.125-.118-.805-.373-.99-.437a11.591 11.591 0 00-2.633-.463c-.921-.031-2.148.133-2.714.886a1.452 1.452 0 00-.074 1.614c.397.679 1.19 1.205 1.84 1.51a7.071 7.071 0 003.637.625 5.916 5.916 0 001.925-.501c.594-.277 1.245-.796 1.542-1.416a3.1 3.1 0 00-.07-2.725 2.16 2.16 0 00-1.147-1.04c-.586-.25-1.347-.384-2.123-.486zm-7.304-6.56a5.693 5.693 0 002.34-.674c.708-.383 1.762-1.132 1.653-2.012a.748.748 0 00-.471-.601c-.319-.136-.484-.112-.89 0-.25.063-.488.16-.708.289a10.59 10.59 0 00-2.606 2.217c-.052.066-.104.135-.156.203v.001c-.091.12-.179.237-.252.327-.074.087-.13.168-.122.188.024.089.883.08 1.21.059l.002.004zm-.975 3.395a.8.8 0 01.15.042c.447.163.631.561.742.999.254 1.015.363 3.26.406 4.14.016.348.028.693.04 1.037v.002l.036.923.006.134c.025.528.055 1.194-.055 1.67a.852.852 0 01-.358.514c-.213.136-.695.136-.961.087-.654-.13-.866-.534-.96-1.157-.222-1.486-.114-4.403.016-5.635.044-.409.202-1.709.424-2.254.077-.185.237-.555.516-.502h-.002zm-19.886 2.473v-.001.001zm0 0c-.007 0-.976.066-1.643.136-.85.089-2.455.354-3.38.673-.275.096-.84.322-.888.597-.048.275.131.507.335.737.12.137.786.752.974.904 1.09.83 2.281 1.526 3.548 2.075.402.16 1.068.39 1.068.39s-.05-1.826-.04-3.625c0-.933.025-1.847.026-1.887zm45.548-.27s3.139-.144 4.332-.408l-.011-.007c.613-.14.253-.72.253-.72-.744-1.432-1.602-1.351-1.602-1.351-2.468-.08-6.055.55-6.447.737-.365.16-.326.425.151 1.004.513.61 1.374.553 1.374.553l-.755 1.506c-.619.042-.83.227-.83.227-.349.366.142 1.447.142 1.447s-1.071 2.317-.294 3.543c.83 1.288 1.821 1.226 1.821 1.226 1.874.131 4.964-1.763 5.128-2.388.139-.506-.346-1.059-.771-1.163-.402-.08-3.492.479-3.863.574-.398.104-.22-.256-.22-.256l.477-1.556s2.957-.11 3.381-.18c.401-.065.425-.338.425-.338.03-.286.042-.573.036-.86-.043-.452-.413-.41-.413-.41-1.14-.116-2.708.014-2.708.014l.394-1.194zm-4.946 5.382c-.317.717-1.152 1.481-2.191 1.006-1.039-.476-2.656-3.693-2.656-3.693s-.62-1.199-.739-1.169c0 0-.141-.233-.216 1.078-.017.292-.025.645-.034 1.022v.001c-.032 1.314-.07 2.915-.49 3.227-.512.408-1.132.242-1.455-.228-.291-.463-.413-1.56-.254-3.49.188-1.933.653-3.989 1.25-4.632.586-.634 1.059-.188 1.25-.008l.009.008s.795.694 2.108 2.733l.232.378s1.192 1.928 1.318 1.922c0 0 .096.089.184.025.124-.034.075-.651.075-.651s-.248-2.1-1.336-5.655a1.617 1.617 0 01-.054-.858c.111-.421.548-.224.548-.224s1.687.818 2.505 3.461c.818 2.643.267 5.03-.054 5.751v-.004zm12.33 1.77c2.88.637 5.048-2.062 5.815-3.352l.006-.009a5.731 5.731 0 00.694-2.78c0-1.111-.317-2.137-1.002-2.61-2.049-1.364-5.343 2.962-6.792 5.108-.217-1.093.552-2.478.552-2.478s1.235-2.052 1.403-2.468c.169-.415.248-1.28.056-1.362-.193-.082-.524.19-.524.19-2.764 2.393-3.15 5.042-3.15 5.042-.26 1.43.044 2.432.492 3.134-1.535 3.151-2.288 5.9-2.087 7.525.185 1.226 1.1 2.127 1.666 2.316.563.226.663-.426.663-.426.458-3.362 1.257-5.608 2.208-7.83zm5.221-6.75s-.113-.854-.979.086a20.233 20.233 0 00-3.17 4.297c1.132-.122 2.229-.716 2.56-1.017.538-.46 1.791-1.707 1.589-3.366zm11.19-.194h5.278c.113 0 .222.044.302.121a.405.405 0 01.123.292v1.052a.418.418 0 01-.425.409h-5.203v.714a37.69 37.69 0 01-.22 4.248.419.419 0 01-.424.37h-1.132a.407.407 0 01-.296-.128.378.378 0 01-.101-.298c.159-1.392.235-2.792.228-4.192v-.714h-5.151a.418.418 0 01-.425-.409v-1.056c0-.226.191-.409.425-.409h5.079a35.854 35.854 0 00-.674-5.041.337.337 0 01.077-.286.36.36 0 01.274-.125h1.217c.189 0 .351.13.385.309.337 1.699.558 3.417.663 5.143z" fill="#272C35"/><path d="M134.13 21.814C129.057 9.805 117.505 1.48 104.109.178 90.712-1.125 77.665 4.809 70.201 15.599a.396.396 0 00-.05.361.426.426 0 00.27.26l.945.306a.532.532 0 00.607-.198C78.38 7.238 89.05 1.798 100.46 1.801c13.837.003 26.329 7.976 31.72 20.246a.499.499 0 00.457.293h1.132a.4.4 0 00.327-.17.365.365 0 00.034-.356z" fill="url(#paint0_radial)"/><path d="M184.921 26.36h-16.078c-1.639 0-2.74.843-2.897 2.118-.067.455-.112.887-.112.887h21.422s.046-.302.068-.563c.157-1.275-.382-2.443-2.405-2.443M187.123 30.488s-.045.409-.113.887c-.142.908-.831 1.6-2.11 1.6h-4.558l-.517 4.042h-3.642l.83-6.507h10.106l.004-.022zM155.772 26.36l-.382 2.983h9.723l.382-2.984h-9.723zM155.259 30.477l-.83 6.529h9.7l.36-2.831h-6.063l.158-1.234h6.062l.314-2.464h-9.701zM188.375 26.36h7.925c1.256 0 2.56.562 2.289 2.53a7.544 7.544 0 01-.066.453h-10.529l.381-2.984zM187.029 36.996h3.616l.831-6.508h-3.637l-.81 6.508zM193.929 36.996h3.637l.809-6.508h-3.616l-.83 6.508zM173.676 30.49h-7.972c-.27 1.709.606 2.465 1.84 2.465h4.917l-.157 1.226h-7.075l-.36 2.832h8.017c.246-.022 2.065-.064 2.672-1.5.202-.475.382-2.14.424-2.484.271-2.077-1.167-2.552-2.312-2.552" fill="#272C35"/><path d="M204.223 27.672l-.337 2.66h-2.695l-.337 2.637h2.718l-.36 2.702h2.897l.337-2.702h2.739l.315-2.638h-2.717l.336-2.66h-2.896z" fill="#FAB200"/><defs><radialGradient id="paint0_radial" cx="0" cy="0" r="1" gradientUnits="userSpaceOnUse" gradientTransform="matrix(61.2398 0 0 21.3653 133.831 22.681)"><stop offset=".01" stop-color="#fff"/><stop offset=".04" stop-color="#C6FFFF"/><stop offset=".09" stop-color="#80FFFF"/><stop offset=".13" stop-color="#49FFFF"/><stop offset=".17" stop-color="#21FFFF"/><stop offset=".2" stop-color="#09FFFF"/><stop offset=".22" stop-color="#0FF"/><stop offset=".28" stop-color="#01F6FF" stop-opacity=".96"/><stop offset=".39" stop-color="#04DEFF" stop-opacity=".87"/><stop offset=".53" stop-color="#08B6FF" stop-opacity=".71"/><stop offset=".69" stop-color="#0E7FFF" stop-opacity=".5"/><stop offset=".87" stop-color="#1639FF" stop-opacity=".22"/><stop offset="1" stop-color="#1C00FF" stop-opacity=".01"/></radialGradient></defs></svg>