<?xml version="1.0" encoding="UTF-8"?>
<svg width="70px" height="40px" viewBox="0 0 70 40" version="1.1" xmlns="http://www.w3.org/2000/svg" xmlns:xlink="http://www.w3.org/1999/xlink">
    <!-- Generator: Sketch 43.1 (39012) - http://www.bohemiancoding.com/sketch -->
    <title>cartoon-network-logo</title>
    <desc>Created with Sketch.</desc>
    <defs></defs>
    <g id="Page-1" stroke="none" stroke-width="1" fill="none" fill-rule="evenodd">
        <g id="cartoon-network-logo" fill-rule="nonzero">
            <g id="Cartoon_Network_logo" transform="translate(18.000000, 10.000000)">
                <path d="M16.6830738,0.0289898216 C22.2402873,0.029895281 27.7979578,0.0285370919 33.3551713,0.0294425513 C33.3551713,5.52965542 33.3556284,11.0294157 33.3551713,16.5296288 C27.7975008,16.5291761 22.2398302,16.5291761 16.6826168,16.5296288 C16.6835309,11.0294157 16.6821597,5.52920269 16.6830738,0.0289898216 Z" id="path1984" fill="#FFFFFF"></path>
                <path d="M0.0117940634,0.0322719308 C5.56900757,0.0331773901 11.1266781,0.0318192011 16.6838916,0.0327246605 C16.6838916,5.53293771 16.6843487,11.032698 16.6838916,16.5329111 C11.126221,16.5324583 5.56855049,16.5324583 0.0113369806,16.5329111 C0.0122511463,11.032698 0.0108798977,5.53248498 0.0117940634,0.0322719308 Z" id="path6" fill="#010101"></path>
                <path d="M7.04081439,1.1351216 C9.08991687,0.617198831 11.3533912,1.03914291 13.078879,2.24883665 C13.9797893,2.87043452 14.7358044,3.69440242 15.2815613,4.63743838 C14.1096009,5.29027459 12.946325,5.95940908 11.7761929,6.61541441 C11.5654777,6.73402959 11.3506487,6.84585382 11.1472468,6.97578724 C10.8245463,6.42753158 10.3053002,5.98928924 9.69692291,5.78465542 C9.289205,5.63299097 8.84217796,5.61759816 8.41343423,5.66920935 C7.17016884,5.83083385 6.13030532,6.97578724 6.14813156,8.22667939 C6.08733954,9.32545435 6.83467002,10.3920855 7.87087687,10.766493 C8.64151858,11.0657473 9.54745682,10.9720323 10.2431369,10.5301681 C10.6202303,10.3010868 10.9228192,9.96878325 11.1509035,9.59618671 C11.9357148,10.0615928 12.7392665,10.4966661 13.5304769,10.9521121 C14.115543,11.278983 14.6946669,11.6171721 15.2829326,11.9390629 C14.3056894,13.630461 12.6313949,14.9198352 10.7226169,15.4056141 C10.4853909,15.4803145 10.2367378,15.5061201 9.9958551,15.5654277 C9.44095651,15.6279044 8.88057292,15.6844956 8.32201766,15.6310735 C6.63401064,15.5378112 4.99765399,14.8261201 3.75941651,13.6893159 C2.47455663,12.5199151 1.62941032,10.8873718 1.43012219,9.17016807 C1.20523742,7.45658618 1.64266572,5.67192573 2.60436816,4.23269803 C3.62183457,2.69930269 5.23670833,1.55932932 7.04081439,1.1351216 Z" id="path8" fill="#FEFEFE"></path>
                <path d="M17.8681933,1.21389657 C19.4556421,1.21208565 21.0435479,1.2175184 22.6309967,1.21072746 C24.2330721,3.16606701 25.8081797,5.14449563 27.4043131,7.10481521 C27.4075126,5.14042107 27.4033989,3.17647979 27.4061414,1.21208565 C28.9931331,1.21525476 30.5801248,1.21480203 32.1671165,1.21253838 C32.1694019,5.92907619 32.1689448,10.6460669 32.1675736,15.3626048 C30.5778394,15.3598884 28.9881052,15.3626048 27.398371,15.3612466 C25.8438322,13.4326181 24.2806088,11.5107806 22.7278983,9.5807939 C22.6972737,9.54593372 22.665735,9.51288445 22.632825,9.48074064 C22.6424238,11.4406075 22.6346534,13.4004743 22.6364817,15.3603412 C21.0467475,15.3630575 19.4570133,15.3607939 17.8672791,15.3612466 C17.8681933,10.6451614 17.866822,5.92952892 17.8681933,1.21389657 Z" id="path10" fill="#010101"></path>
                <path d="M0.564864329,18.7272919 C0.543838517,18.2677713 0.887564831,17.8218325 1.33687729,17.7109137 C1.79121765,17.5633239 2.31594887,17.7905942 2.55043238,18.1957872 C2.37582673,18.3162133 2.17745267,18.3990629 2.00558952,18.5240163 C1.9233146,18.4325649 1.83326928,18.3275316 1.70254358,18.3098751 C1.48817171,18.2691295 1.2536882,18.4244157 1.22260657,18.6412733 C1.18923952,18.7494757 1.24088988,18.8558671 1.27105735,18.958184 C1.4484055,19.1976781 1.84835301,19.1859071 2.0033041,18.9278512 C2.18430892,19.0401281 2.3739984,19.1379177 2.55500321,19.2501947 C2.35845758,19.5702746 1.99324828,19.7998085 1.60655618,19.7644956 C1.04708675,19.7948285 0.54109602,19.2755476 0.564864329,18.7272919 Z" id="path12" fill="#010101"></path>
                <path d="M10.2111411,17.6914464 C10.5978332,17.6081441 11.0220061,17.7779177 11.2574038,18.0903012 C11.605701,18.5289963 11.5138273,19.2375183 11.0535449,19.5648418 C10.795293,19.7807939 10.4360259,19.7961867 10.1174391,19.7427646 C9.85598775,19.6698751 9.6279034,19.4928578 9.48849313,19.2624184 C9.33079954,18.9953079 9.31662997,18.6620988 9.40484696,18.3696354 C9.52688809,18.0232972 9.84456068,17.7516594 10.2111411,17.6914464 Z" id="path14" fill="#010101"></path>
                <path d="M12.4161089,17.7140828 C12.968265,17.5334437 13.6223505,17.9141894 13.7357071,18.4778378 C13.8646045,18.9441494 13.6113806,19.4756541 13.1675531,19.6766661 C12.957295,19.7880376 12.7109273,19.7717393 12.4814717,19.7545356 C12.1290608,19.6920589 11.8283003,19.4244956 11.7044308,19.0944557 C11.4800032,18.5439364 11.8296716,17.8512599 12.4161089,17.7140828 Z" id="path16" fill="#010101"></path>
                <path d="M27.1296063,17.7131774 C27.7375265,17.5085436 28.4620028,17.995228 28.4761724,18.634935 C28.5232519,19.0183971 28.3271634,19.405481 28.0008062,19.611473 C27.7585523,19.7816994 27.4477359,19.7853212 27.1648016,19.7486501 C26.8087341,19.6653478 26.5134586,19.3832972 26.4028445,19.0401281 C26.3479946,18.8246288 26.3493658,18.5955476 26.4106149,18.3818591 C26.5276281,18.0649484 26.7954787,17.7964797 27.1296063,17.7131774 Z" id="path18" fill="#010101"></path>
                <path d="M30.8507179,17.7181574 C31.0788022,17.7177047 31.3064295,17.7181574 31.5349709,17.7177047 C31.5358851,17.9327513 31.5331426,18.1477979 31.5363421,18.3628445 C31.7132332,18.1550416 31.8681843,17.9300349 32.0391333,17.717252 C32.3330376,17.7190629 32.6269419,17.717252 32.9213032,17.7181574 C32.6493389,18.0368791 32.3965721,18.3714464 32.120037,18.6860935 C32.3970292,19.0306208 32.6534527,19.3905409 32.9267882,19.7382373 C32.6315127,19.7436701 32.3362372,19.7391428 32.0414187,19.7409537 C31.8759547,19.4869723 31.7045486,19.2370655 31.5345138,18.9862533 C31.5345138,19.237971 31.5345138,19.489236 31.535428,19.7409537 C31.3068865,19.740501 31.0788022,19.7409537 30.8507179,19.740501 C30.8511749,19.0663864 30.8507179,18.3922719 30.8507179,17.7181574 Z" id="path20" fill="#010101"></path>
                <path d="M3.2113742,17.7204211 C3.55327214,17.7145356 3.89517012,17.7213265 4.23752519,17.7163465 C4.39110503,18.1188232 4.49669117,18.5380509 4.63701561,18.9450549 C4.73574551,19.2067326 4.78785295,19.4838032 4.89526743,19.7423119 C4.64844268,19.7441228 4.40161793,19.7418591 4.15479319,19.7441228 C4.12325447,19.6277713 4.10222866,19.5082506 4.05332079,19.3977846 C3.84351976,19.4032173 3.63326164,19.4000482 3.42346061,19.400501 C3.38140898,19.5136834 3.34209986,19.6277713 3.30644739,19.7436701 C3.06602185,19.7427646 2.82605335,19.7427646 2.58608484,19.7436701 C2.78400172,19.0663864 3.02259898,18.3999683 3.2113742,17.7204211 Z" id="path22" fill="#010101"></path>
                <path d="M5.07490099,17.7186101 C5.50318764,17.7208738 5.93147428,17.7113665 6.35930384,17.7231374 C6.79673214,17.7276647 7.14411512,18.1989564 7.01293234,18.6127513 C6.9631103,18.8137633 6.81227296,18.9717659 6.63446772,19.0727247 C6.78027716,19.2913931 6.90368953,19.5236434 7.04904188,19.7427646 C6.79398964,19.7441228 6.53939449,19.7414064 6.28479933,19.7441228 C6.17052862,19.549449 6.08322579,19.3402879 5.96941216,19.1451614 C5.89993556,19.1474251 5.83000188,19.149236 5.76052529,19.1519524 C5.76098237,19.3488898 5.76052529,19.5458272 5.76143945,19.7427646 C5.53244094,19.7427646 5.30344242,19.7436701 5.07490099,19.7423119 C5.07535808,19.0677446 5.07490099,18.3931774 5.07490099,17.7186101 Z" id="path24" fill="#010101"></path>
                <path d="M7.20764964,18.3085169 C7.20719255,18.1111268 7.20764964,17.9141894 7.20764964,17.7177047 C7.89098852,17.7186101 8.57478448,17.7181574 9.25812336,17.7177047 L9.25812336,18.3076115 C9.04603691,18.3062533 8.83349338,18.3071587 8.62140693,18.3062533 C8.62140693,18.7852413 8.62094985,19.2642293 8.62186402,19.7436701 C8.36726886,19.7427646 8.11313079,19.7432173 7.85853563,19.7427646 C7.8594498,19.2642293 7.85853563,18.7852413 7.85899272,18.306706 C7.64187836,18.3071587 7.424764,18.3058006 7.20764964,18.3085169 Z" id="path26" fill="#010101"></path>
                <path d="M13.9637914,19.7436701 C13.9633344,19.0686501 13.9633344,18.3931774 13.9637914,17.7177047 C14.1891333,17.7217793 14.4144751,17.7118192 14.639817,17.7213265 C14.8884701,17.9771188 15.092329,18.2772786 15.3258984,18.5484637 C15.3208705,18.2718458 15.3272696,17.995228 15.3162996,17.7190629 C15.544384,17.717252 15.7729254,17.7181574 16.0014669,17.7181574 C16.0014669,18.3931774 16.0010098,19.0681974 16.0019239,19.7432173 C15.7788675,19.7432173 15.5562681,19.7427646 15.3341259,19.7436701 C15.1014707,19.4643358 14.8761288,19.1791161 14.6480445,18.8966128 C14.6425595,19.1786634 14.6466732,19.460714 14.6457591,19.7427646 C14.4185889,19.7432173 14.1909616,19.7423119 13.9637914,19.7436701 Z" id="path28" fill="#010101"></path>
                <path d="M17.3686017,17.7186101 C17.6003427,17.7177047 17.8320837,17.7186101 18.0638247,17.7177047 C18.2900808,17.9947753 18.5090234,18.2772786 18.7407645,18.5489164 C18.7430499,18.2722986 18.7407645,17.995228 18.7416786,17.7186101 C18.9679346,17.7177047 19.1937336,17.7181574 19.4199896,17.7181574 C19.4195325,18.3922719 19.4204467,19.0668392 19.4195325,19.7414064 C19.1955619,19.740501 18.9720484,19.7400482 18.7480778,19.7414064 C18.512223,19.4742959 18.296937,19.1904344 18.0734235,18.9133638 C18.0661101,19.1890762 18.0711381,19.4647886 18.0697668,19.7400482 C17.8361975,19.7409537 17.602171,19.7409537 17.3686017,19.740501 C17.3690588,19.0663864 17.3686017,18.3922719 17.3686017,17.7186101 Z" id="path30" fill="#010101"></path>
                <path d="M19.6983531,17.7181574 C20.293932,17.7177047 20.8890539,17.7181574 21.4846329,17.7181574 C21.4841758,17.9137366 21.4846329,18.1093159 21.4841758,18.3053478 C21.1175953,18.3039896 20.7510149,18.3048951 20.3844344,18.3048951 C20.3839774,18.3479044 20.3839774,18.4343758 20.3835203,18.4773851 C20.696622,18.4782906 21.0101809,18.4773851 21.3232826,18.4778378 C21.3228256,18.6471587 21.3228256,18.8164797 21.3232826,18.9862533 C21.0101809,18.9858006 20.6970791,18.9858006 20.3844344,18.9862533 C20.3839774,19.0546155 20.3835203,19.1229777 20.3839774,19.1917926 C20.7505578,19.1922453 21.1171383,19.1922453 21.4841758,19.1913398 C21.4846329,19.3746954 21.4841758,19.5575982 21.4846329,19.7409537 C20.8890539,19.740501 20.2934749,19.7409537 19.6983531,19.740501 C19.6988101,19.0663864 19.6983531,18.3922719 19.6983531,17.7181574 Z" id="path32" fill="#010101"></path>
                <path d="M21.7086035,18.3044424 C21.7090606,18.1088631 21.7090606,17.9137366 21.7090606,17.7181574 C22.3923995,17.7177047 23.0752813,17.7190629 23.7581631,17.7177047 C23.7586201,17.9137366 23.7590772,18.1097686 23.7581631,18.3062533 C23.5442483,18.3035369 23.3303335,18.3048951 23.1164187,18.3044424 C23.1173329,18.7834304 23.1155045,19.2624184 23.1173329,19.7409537 C22.8609094,19.7400482 22.6044859,19.7409537 22.3485195,19.740501 C22.3489766,19.2619657 22.3480624,18.7834304 22.3489766,18.3048951 C22.1355189,18.3044424 21.9220612,18.3048951 21.7086035,18.3044424 Z" id="path34" fill="#010101"></path>
                <path d="M23.9158566,17.7181574 C24.1457693,17.7181574 24.375682,17.7177047 24.6060518,17.7181574 C24.6773567,18.005188 24.7029533,18.3008205 24.7788291,18.5873984 C24.8894431,18.3180243 25.0050851,18.0509137 25.1102142,17.7797287 C25.2395686,18.0463864 25.3286998,18.3311534 25.4671959,18.5937366 C25.4859363,18.296746 25.589237,18.0133372 25.6171191,17.717252 C25.8470317,17.7186101 26.0769444,17.7186101 26.3068571,17.717252 C26.1948718,18.3940828 26.0422061,19.0641228 25.9279354,19.7400482 C25.7405314,19.7414064 25.5531275,19.7395955 25.3657235,19.7423119 C25.2679078,19.5671055 25.2025449,19.376959 25.1115854,19.1981308 C25.0347955,19.3792227 24.9520635,19.5575982 24.8793873,19.740501 C24.6910692,19.7409537 24.502294,19.740501 24.3139758,19.7409537 C24.1677093,19.0695556 24.0561811,18.3913665 23.9158566,17.7181574 Z" id="path36" fill="#010101"></path>
                <path d="M28.6846022,19.7414064 C28.6850592,19.0663864 28.6818597,18.3913665 28.6864305,17.7163465 C28.9995323,17.7199683 29.3130911,17.717252 29.6266499,17.7181574 C29.8076548,17.7190629 29.9927733,17.7050283 30.1687502,17.7575449 C30.4334012,17.8603145 30.6505156,18.1188232 30.6400027,18.4103811 C30.6628568,18.6842826 30.4855086,18.936453 30.2478256,19.060501 C30.3694096,19.2927513 30.5175044,19.5105143 30.6464018,19.7391428 C30.3927208,19.7432173 30.1390398,19.7377846 29.8853588,19.7427646 C29.7829723,19.5440163 29.6824141,19.3448152 29.5800275,19.1460669 C29.5091796,19.1447087 29.4387889,19.144256 29.3683981,19.1433505 C29.367484,19.3425516 29.367941,19.5417526 29.367941,19.7409537 C29.1398567,19.740501 28.9122294,19.7400482 28.6846022,19.7414064 Z" id="path38" fill="#010101"></path>
                <path d="M3.75118902,18.278184 C3.77084358,18.4891561 3.87048765,18.6811135 3.90614011,18.8889164 L3.55052964,18.8889164 C3.63920372,18.691979 3.65383037,18.4719524 3.75118902,18.278184 Z" id="path40" fill="#FEFEFE"></path>
                <path d="M5.76052529,18.3076115 C5.92918886,18.3112333 6.09922369,18.2940296 6.2669731,18.3175715 C6.39129964,18.3977047 6.37667299,18.5901148 6.23406314,18.6408205 C6.07636955,18.6512333 5.91867596,18.6426315 5.76098237,18.6444424 C5.76098237,18.5317127 5.76052529,18.4194357 5.76052529,18.3076115 Z" id="path42" fill="#FEFEFE"></path>
                <path d="M29.367941,18.3044424 C29.5311196,18.3085169 29.6961265,18.2935769 29.858848,18.3139497 C29.9827175,18.3628445 29.9630629,18.5113398 29.9173546,18.6095822 C29.7409207,18.6711534 29.5512313,18.6362932 29.3683981,18.6448951 C29.367941,18.5312599 29.367484,18.4180775 29.367941,18.3044424 Z" id="path44" fill="#FEFEFE"></path>
                <path d="M10.2349094,18.3945356 C10.4250559,18.2727513 10.7084473,18.3981574 10.7651256,18.6095822 C10.8140334,18.7272919 10.7660397,18.8504344 10.7198744,18.959995 C10.5836637,19.1053212 10.3386673,19.1691561 10.1777741,19.0256408 C9.95974556,18.8789564 9.98899886,18.4982107 10.2349094,18.3945356 Z" id="path46" fill="#FEFEFE"></path>
                <path d="M12.4412484,18.4547486 C12.6286524,18.2582639 12.9993466,18.3537899 13.0637953,18.6159204 C13.1232161,18.735441 13.0546536,18.8585835 13.0080312,18.9690496 C12.9106725,19.0464663 12.8014297,19.1279577 12.6679615,19.1035103 C12.3557739,19.0935502 12.2021941,18.6530442 12.4412484,18.4547486 Z" id="path48" fill="#FEFEFE"></path>
                <path d="M27.266274,18.3841228 C27.4948155,18.2546421 27.8179731,18.4628978 27.795576,18.7236701 C27.823458,19.0120589 27.4449934,19.2180509 27.2146237,19.0410336 C26.968256,18.9015928 26.9970522,18.4828179 27.266274,18.3841228 Z" id="path50" fill="#FEFEFE"></path>
                <path d="M33.2316625,19.1936035 C33.3797573,19.1936035 33.5278522,19.1863598 33.675947,19.1940562 C33.6855458,19.2166927 33.7047433,19.2615129 33.714342,19.2836967 C33.6485221,19.2873185 33.5831592,19.2904876 33.5182534,19.2936568 C33.5187105,19.4435103 33.5187105,19.5933638 33.5196247,19.7432173 C33.488086,19.7450283 33.4254656,19.7477446 33.3939269,19.7491028 C33.3925557,19.5960802 33.3930127,19.4435103 33.3934698,19.2909404 C33.339534,19.2904876 33.2855983,19.2900349 33.2321196,19.2900349 C33.2321196,19.2660402 33.2321196,19.2175982 33.2316625,19.1936035 Z" id="path52" fill="#010101"></path>
                <path d="M33.7522799,19.1886235 C33.8085011,19.1890762 33.8656364,19.1913398 33.9227718,19.1954144 C33.9607097,19.3303279 33.9867634,19.4688631 34.0251583,19.6042293 C34.0566971,19.4647886 34.0868645,19.3258006 34.1293732,19.1895289 C34.1810236,19.1904344 34.2335881,19.1913398 34.2866097,19.192698 C34.2861527,19.376959 34.2861527,19.5616727 34.2866097,19.7463864 C34.2600989,19.7463864 34.2066202,19.7468392 34.1801094,19.7472919 C34.1814807,19.5992493 34.1755386,19.4512067 34.1759957,19.3036168 C34.1535986,19.4539231 34.1174891,19.6015129 34.0772658,19.7481974 C34.0370425,19.7468392 33.9968192,19.7459337 33.957053,19.745481 C33.9355701,19.5992493 33.9104305,19.4534703 33.8679218,19.3117659 C33.8569518,19.4570922 33.8615227,19.6024184 33.8624368,19.7481974 C33.8340977,19.7477446 33.7778765,19.7463864 33.7499945,19.745481 C33.7513657,19.5598618 33.7499945,19.3742426 33.7522799,19.1886235 Z" id="path54" fill="#010101"></path>
            </g>
        </g>
    </g>
</svg>