<?xml version="1.0" encoding="UTF-8"?>
<svg width="70px" height="40px" viewBox="0 0 70 40" version="1.1" xmlns="http://www.w3.org/2000/svg" xmlns:xlink="http://www.w3.org/1999/xlink">
    <!-- Generator: Sketch 43.1 (39012) - http://www.bohemiancoding.com/sketch -->
    <title>disneyxd-international-network-logo</title>
    <desc>Created with Sketch.</desc>
    <defs>
        <polygon id="path-1" points="4.9507382 0.0532136364 3.03370787e-05 0.0532136364 3.03370787e-05 4.22577955 4.9507382 4.22577955 4.9507382 0.0532136364"></polygon>
    </defs>
    <g id="Page-1" stroke="none" stroke-width="1" fill="none" fill-rule="evenodd">
        <g id="disneyxd-international-network-logo">
            <g id="Page-1" transform="translate(18.000000, 7.000000)">
                <polygon id="Fill-1" fill="#22FF4C" points="19 5 19 23 31.5000161 23 35 19.3999161 35 8.60008385 31.5000161 5"></polygon>
                <g id="Group-17">
                    <g id="Group-4">
                        <mask id="mask-2" fill="white">
                            <use xlink:href="#path-1"></use>
                        </mask>
                        <g id="Clip-3"></g>
                        <path d="M1.8294573,3.46719773 L1.87465955,2.45906591 C1.71387303,2.47297045 1.58564831,2.48499318 1.49028876,2.49544773 C1.39482809,2.50579773 1.28844607,2.521375 1.1711427,2.54217955 C1.05383933,2.56298409 0.966670787,2.58974773 0.909738202,2.62267955 C0.852805618,2.65561136 0.824288764,2.69282955 0.824288764,2.73443864 C0.824288764,2.82455682 0.948266292,2.96475227 1.19612022,3.15533864 C1.38046854,3.31121591 1.59161461,3.41523864 1.8294573,3.46719773 L1.8294573,3.46719773 Z M0.361850562,0.629938636 C0.358513483,0.629938636 0.342535955,0.630775 0.314120225,0.632552273 C0.285603371,0.634225 0.261333708,0.635165909 0.241311236,0.635165909 C0.0804235955,0.635165909 3.03370787e-05,0.607461364 3.03370787e-05,0.552052273 C3.03370787e-05,0.219493182 0.387030337,0.0531613636 1.16103034,0.0531613636 C1.58655843,0.0531613636 2.0943,0.162306818 2.68395169,0.380493182 C2.84483933,0.439352273 3.01988427,0.519015909 3.20918764,0.619484091 C3.39849101,0.720056818 3.59699663,0.846452273 3.80480562,0.998984091 C4.01251348,1.15141136 4.20019888,1.311575 4.36776067,1.47957955 C4.53522135,1.64758409 4.67426629,1.83628864 4.78489551,2.04590227 C4.8954236,2.25551591 4.9507382,2.46251591 4.9507382,2.66679773 C4.9507382,2.89554318 4.8954236,3.10076591 4.78489551,3.282675 C4.67426629,3.46458409 4.52682809,3.61094773 4.3425809,3.72176591 C4.15823258,3.83258409 3.9555809,3.917475 3.7344236,3.97633409 C3.51326629,4.03529773 3.28543483,4.064675 3.05092921,4.064675 C2.88326629,4.064675 2.63864831,4.03864318 2.31707528,3.98668409 C2.29351348,4.07335227 2.27349101,4.14611591 2.25680562,4.20507955 C2.17631124,4.21887955 2.11765955,4.22577955 2.08085056,4.22577955 L1.96516517,4.215325 C1.91824382,4.15646591 1.87465955,4.02139318 1.83451348,3.81000227 C1.39553596,3.54675682 1.09894045,3.32334318 0.94482809,3.13976136 C0.780603371,2.96307955 0.698491011,2.812325 0.698491011,2.68760227 C0.698491011,2.60804318 0.753906742,2.52837955 0.864535955,2.44861136 C1.0721427,2.28928409 1.41565955,2.16633864 1.89478315,2.07967045 L1.90489551,1.86671136 C1.9451427,1.45783409 2.00207528,1.22051591 2.07579438,1.15475682 C2.15952472,1.22752045 2.21483933,1.30373409 2.24163708,1.38339773 C2.26843483,1.46306136 2.28683933,1.57220682 2.29705281,1.71072955 C2.30362584,1.85625682 2.31191798,1.96529773 2.32203034,2.03806136 L2.39241236,2.03806136 C2.50627753,2.03806136 2.63278315,2.04673864 2.77182809,2.06409318 C2.91097416,2.08144773 3.0641764,2.11009318 3.23183933,2.149925 C3.3993,2.18975682 3.53925506,2.25384318 3.65150225,2.34218409 C3.76364831,2.43042045 3.81977191,2.53527955 3.81977191,2.65655227 C3.81977191,2.72576136 3.78215393,2.80281136 3.70671573,2.88780682 C3.63137865,2.97269773 3.55341236,3.01503864 3.4730191,3.01503864 C3.37927753,3.01503864 3.30555843,2.99256136 3.25196292,2.94750227 C3.26864831,2.92669773 3.30626629,2.88853864 3.36491798,2.83323409 C3.42356966,2.777825 3.45795169,2.73799318 3.46806404,2.71363409 C3.41780562,2.65122045 3.28118764,2.59058409 3.05841236,2.531725 C2.83553596,2.47286591 2.6253,2.44338409 2.42770449,2.44338409 C2.36733371,2.44338409 2.32374944,2.44516136 2.29695169,2.44861136 L2.30190674,3.58658864 C2.41921011,3.66280227 2.57999663,3.70096136 2.78446854,3.70096136 C2.89499663,3.70096136 3.00218764,3.69657045 3.1061427,3.68789318 C3.20999663,3.67932045 3.33063708,3.66363864 3.46806404,3.64116136 C3.60538989,3.61868409 3.7301764,3.58313864 3.84252472,3.53462955 C3.95477191,3.486225 4.06115393,3.426425 4.16177191,3.35543864 C4.26218764,3.28434773 4.34096292,3.19088409 4.39789551,3.07483864 C4.45482809,2.95879318 4.48334494,2.82633409 4.48334494,2.67735682 C4.48334494,2.45906591 4.42135618,2.24589773 4.29737865,2.03816591 C4.17340112,1.830225 4.01008652,1.64413409 3.80733371,1.479475 C3.6045809,1.315025 3.39515393,1.17033409 3.17905281,1.04561136 C2.96295169,0.920993182 2.73926629,0.813520455 2.50799663,0.723506818 C1.91156966,0.487965909 1.30674944,0.370143182 0.693637079,0.370143182 C0.536086517,0.370143182 0.398760674,0.385720455 0.281457303,0.416979545 C0.204401124,0.434334091 0.16577191,0.455138636 0.16577191,0.479288636 C0.16577191,0.489638636 0.180030337,0.500093182 0.208547191,0.510443182 C0.236962921,0.520793182 0.268007865,0.528738636 0.301479775,0.533861364 C0.334951685,0.538984091 0.353457303,0.543375 0.356794382,0.546825 C0.373580899,0.557175 0.381974157,0.571079545 0.381974157,0.588329545 C0.381974157,0.602234091 0.3753,0.616138636 0.361850562,0.629938636 Z" id="Fill-2" fill="#22FF4C" mask="url(#mask-2)"></path>
                    </g>
                    <path d="M5.05578539,1.21712864 C5.06256067,1.22413318 5.06923483,1.22768773 5.07590899,1.22768773 C5.08602135,1.22768773 5.09441461,1.22413318 5.10108876,1.21712864 C5.14457191,1.15826955 5.2752236,1.01974682 5.49314494,0.801455909 L5.49314494,0.796333182 C5.49314494,0.785878636 5.48970674,0.777201364 5.48303258,0.770301364 C5.36239213,0.794451364 5.26359438,0.849024091 5.1865382,0.933915 C5.10948202,1.01880591 5.06589775,1.11321045 5.05578539,1.21712864 L5.05578539,1.21712864 Z M5.35733596,1.404265 C5.35733596,1.411165 5.36239213,1.41984227 5.37240337,1.43019227 C5.38251573,1.44064682 5.39090899,1.44587409 5.39748202,1.44587409 L5.50811124,1.44587409 C5.66232472,1.44587409 5.82826854,1.39903773 6.00584157,1.30546955 C6.18331348,1.21190136 6.2721,1.09418318 6.2721,0.952210455 C6.2721,0.921055909 6.27048202,0.898474091 6.26714494,0.884674091 C6.26380787,0.870769545 6.25207753,0.856969545 6.23195393,0.843065 C6.21183034,0.829265 6.18169551,0.822365 6.14144831,0.822365 C5.89349326,0.822365 5.63208876,1.01629682 5.35733596,1.40436955 L5.35733596,1.404265 Z M5.33731348,2.04857864 C5.42104382,2.05202864 5.47635843,2.07722409 5.50315618,2.12385136 C5.52995393,2.17058318 5.54674045,2.24941045 5.55341461,2.36033318 C5.55675169,2.47125591 5.56595393,2.673865 5.58102135,2.96836955 C5.59618989,3.26276955 5.60367303,3.48618318 5.60367303,3.63861045 C5.60367303,3.75988318 5.55169551,3.82051955 5.44784157,3.82051955 C5.40769551,3.82051955 5.36077416,3.81016955 5.30717865,3.78926045 C5.25692022,3.77201045 5.22334719,3.680115 5.20656067,3.51388773 C5.20656067,3.42721955 5.21161685,3.245415 5.22172921,2.96836955 C5.24175169,2.67396955 5.27026854,2.379465 5.30717865,2.08485591 C5.31051573,2.06070591 5.32052697,2.04857864 5.33731348,2.04857864 L5.33731348,2.04857864 Z M6.21193146,0.619651364 L6.22184157,0.614424091 L6.23195393,0.614424091 C6.28888652,0.614424091 6.35006629,0.639515 6.41539213,0.689696818 C6.48071798,0.739983182 6.51348202,0.808355909 6.51348202,0.894919545 C6.51348202,1.08205591 6.39284157,1.27170136 6.15145955,1.46396045 C5.91027978,1.65621955 5.69913371,1.75240136 5.5182236,1.75240136 C5.39758315,1.75240136 5.29201011,1.73671955 5.20150449,1.705565 C5.19149326,1.715915 5.17976292,1.73149227 5.16641461,1.75240136 C5.15296517,1.77320591 5.14214494,1.78794682 5.13375169,1.79662409 C5.1252573,1.80530136 5.11362809,1.81397864 5.09845955,1.82255136 C5.08339213,1.83112409 5.06751573,1.83718773 5.05072921,1.84063773 C5.02393146,1.83373773 4.99713371,1.80875136 4.97033596,1.765365 C4.9435382,1.72197864 4.92847079,1.67263318 4.92513371,1.61722409 C4.92513371,1.61032409 4.93018989,1.58094682 4.94030225,1.52888318 C4.85323483,1.40761045 4.80954944,1.30379682 4.80954944,1.21712864 C4.80954944,1.04055136 4.91431348,0.862928636 5.12374045,0.684574091 C5.33316742,0.506219545 5.55351573,0.416937727 5.78468427,0.416937727 C5.89521236,0.416937727 5.98986404,0.436069545 6.06863933,0.474124091 C6.14731348,0.512283182 6.19514494,0.560792273 6.21193146,0.619651364 L6.21193146,0.619651364 Z" id="Fill-5" fill="#22FF4C"></path>
                    <path d="M6.18626629,2.50577682 C6.17959213,2.51267682 6.17625506,2.51968136 6.17625506,2.52658136 C6.17625506,2.53358591 6.17959213,2.53703591 6.18626629,2.53703591 C6.35382809,2.599345 6.52644607,2.63572682 6.70412022,2.64607682 C6.99222135,2.66698591 7.18496292,2.69981318 7.28204157,2.74487227 C7.46295169,2.82119045 7.5534573,2.96138591 7.5534573,3.16577227 C7.5534573,3.297395 7.52322135,3.40654045 7.46295169,3.49310409 C7.40268202,3.57977227 7.32400787,3.64040864 7.22672697,3.67501318 C7.12954719,3.70972227 7.04824382,3.73219955 6.98291798,3.74254955 C6.91759213,3.75300409 6.8531764,3.75823136 6.78946854,3.75823136 C6.58509775,3.75823136 6.39994045,3.70365864 6.23409775,3.59440864 C6.06825506,3.48536773 5.98533371,3.37538591 5.98533371,3.26456773 C5.98533371,3.150195 6.03053596,3.06781318 6.12104157,3.01763136 C6.21144607,2.96744955 6.3187382,2.94235864 6.44271573,2.94235864 C6.67054719,2.94235864 6.88664831,2.99599045 7.09112022,3.10346318 C7.09769326,3.11036318 7.10103034,3.11726318 7.10103034,3.12426773 C7.10103034,3.13806773 7.09779438,3.14841773 7.09112022,3.15531773 C7.02397416,3.22463136 6.92851348,3.25934045 6.80453596,3.25934045 C6.76105281,3.25934045 6.67722135,3.23853591 6.55324382,3.19692682 C6.42926629,3.15531773 6.33208652,3.13461773 6.26170449,3.13461773 C6.15785056,3.13461773 6.10587303,3.17789955 6.10587303,3.26456773 C6.10587303,3.29582682 6.11679438,3.32091773 6.13853596,3.339945 C6.16037865,3.35897227 6.19546854,3.37193591 6.24410899,3.37883591 C6.29264831,3.38573591 6.33370449,3.39012682 6.36727753,3.39179955 C6.40085056,3.39357682 6.44938989,3.39441318 6.51289551,3.39441318 C6.62028876,3.39441318 6.77854719,3.36932227 6.98797416,3.31914045 C7.19740112,3.26885409 7.30216517,3.20215409 7.30216517,3.11904045 C7.30216517,3.03927227 7.21590674,2.97612682 7.04328876,2.92929045 C6.87077191,2.88255864 6.70907528,2.85746773 6.55819888,2.85401773 C6.27687303,2.84701318 6.0975809,2.82443136 6.0204236,2.78637682 C5.94336742,2.74821773 5.9047382,2.67210864 5.9047382,2.55773591 C5.9047382,2.44702227 5.95256966,2.35178136 6.04803034,2.27201318 C6.14359213,2.19234955 6.2591764,2.13767227 6.39488427,2.108295 C6.53059213,2.07891773 6.63940112,2.05894955 6.72151348,2.04859955 C6.80362584,2.03824955 6.86480562,2.03312682 6.90505281,2.03312682 C7.09941236,2.03312682 7.31389551,2.06250409 7.54850225,2.12136318 C7.58531124,2.12826318 7.60371573,2.15419045 7.60371573,2.19924955 C7.60027753,2.25120864 7.56346854,2.291145 7.49308652,2.31884955 C7.44292921,2.33264955 7.38761461,2.34299955 7.32734494,2.34989955 C7.27698539,2.35690409 7.13622135,2.36903136 6.90505281,2.38638591 C6.67378315,2.40363591 6.52978315,2.41754045 6.47285056,2.42789045 C6.32874944,2.448695 6.23318764,2.47472682 6.18626629,2.50577682" id="Fill-7" fill="#22FF4C"></path>
                    <path d="M8.62616629,1.89789727 L8.62616629,1.87709273 C8.62616629,1.80422455 8.64285169,1.76784273 8.6763236,1.76784273 C8.71323371,1.76784273 8.76096404,1.79910182 8.81971685,1.86141091 C8.87836854,1.92382455 8.93772809,2.00693818 8.99809888,2.11085636 C9.05826742,2.21477455 9.11024494,2.34733818 9.15382921,2.50844273 C9.19731236,2.66954727 9.21915506,2.83493818 9.21915506,3.00461545 C9.21915506,3.17784727 9.18315506,3.33727909 9.11105393,3.48270182 C9.03905393,3.62822909 8.94612135,3.70099273 8.83215506,3.70099273 C8.76521124,3.70099273 8.69321124,3.65070636 8.61615506,3.55034273 C8.53909888,3.44987455 8.47205393,3.33905636 8.41502022,3.21767909 C8.35808764,3.09651091 8.3052,2.98558818 8.25666067,2.88512 C8.20812135,2.78465182 8.1770764,2.73436545 8.16372809,2.73436545 C8.15027865,2.73436545 8.13864944,2.75349727 8.1286382,2.79165636 C8.1252,2.80901091 8.11842472,2.92672909 8.10841348,3.14491545 C8.09830112,3.36320636 8.08828989,3.50172909 8.07827865,3.56058818 C8.04470562,3.72336545 7.99444719,3.80480636 7.92750337,3.80480636 C7.85712135,3.80480636 7.80686292,3.75985182 7.77672809,3.66973364 C7.74659326,3.57972 7.73142472,3.48803364 7.73142472,3.39436091 C7.73142472,3.20042909 7.76580674,2.94753364 7.83457079,2.63577909 C7.90323371,2.32402455 7.98453708,2.16814727 8.07827865,2.16814727 C8.12186292,2.16814727 8.18213258,2.22355636 8.25918876,2.33437455 C8.33624494,2.44519273 8.42836854,2.58988364 8.53566067,2.76823818 C8.64295281,2.94669727 8.73002022,3.07737909 8.79706517,3.16049273 C8.8036382,3.16749727 8.81203146,3.17795182 8.82214382,3.19175182 L8.83215506,3.20210182 C8.85227865,3.20210182 8.86239101,3.15704273 8.86239101,3.06692455 C8.86239101,2.95265636 8.85571685,2.84790182 8.84226742,2.75266091 C8.8289191,2.65742 8.81466067,2.58120636 8.79959326,2.52391545 C8.78442472,2.46672909 8.76015506,2.38016545 8.72668315,2.26412 C8.69311011,2.14807455 8.66459326,2.04677 8.64113258,1.96020636 L8.62616629,1.89789727 Z" id="Fill-9" fill="#22FF4C"></path>
                    <path d="M10.5764966,3.48272273 C10.5764966,3.52077727 10.5663843,3.54670455 10.5462607,3.56060909 C10.2547213,3.79625455 9.99675506,3.91407727 9.77226067,3.91407727 C9.64160899,3.91407727 9.54190112,3.87163182 9.47313708,3.78674091 C9.40447416,3.70185 9.37009213,3.59876818 9.37009213,3.47749545 C9.37009213,3.42564091 9.41205843,3.27833636 9.49588989,3.03589545 C9.49245169,3.02199091 9.48739551,3.00725 9.48082247,2.99167273 C9.47404719,2.97609545 9.46818202,2.96051818 9.46322697,2.94494091 C9.45817079,2.92925909 9.45574382,2.91462273 9.45574382,2.90082273 L9.48072135,2.7968 C9.54442921,2.77254545 9.58801348,2.75864091 9.61137303,2.75519091 L9.73211461,2.46946818 C9.72533933,2.46601818 9.70855281,2.45817727 9.68175506,2.44615455 C9.6549573,2.43402727 9.63574382,2.42451364 9.62401348,2.41761364 C9.61228315,2.41060909 9.59478876,2.40109545 9.57132809,2.38896818 C9.54776629,2.37673636 9.5310809,2.36555 9.52096854,2.35509545 C9.51085618,2.34485 9.49831685,2.33261818 9.48324944,2.31881818 C9.46818202,2.30491364 9.45806966,2.29111364 9.45311461,2.27731364 C9.44805843,2.26340909 9.44553034,2.24960909 9.44553034,2.23580909 C9.44553034,2.19075 9.48911461,2.16471818 9.57618202,2.15781818 C9.61642921,2.15426364 9.73201348,2.13617727 9.92303596,2.10324545 C10.1140584,2.07031364 10.2882944,2.0539 10.4458449,2.0539 C10.4993393,2.0539 10.5681034,2.06602727 10.6518337,2.09028182 C10.658609,2.09718182 10.6727663,2.11359545 10.694609,2.13962727 C10.7163506,2.16555455 10.7348562,2.18813636 10.7498225,2.20716364 C10.764991,2.22629545 10.7791483,2.24877273 10.7925978,2.2747 C10.8060472,2.30062727 10.8127213,2.32404545 10.8127213,2.34485 C10.8127213,2.36910455 10.7808674,2.39335909 10.7172607,2.41761364 C10.6535528,2.44186818 10.5949011,2.45577273 10.5412045,2.45922273 C10.5379685,2.45922273 10.4039798,2.46445 10.1391371,2.47469545 C10.1056652,2.47469545 10.0804854,2.47647273 10.0636989,2.48002727 C10.0235528,2.52153182 10.0034292,2.59429545 10.0034292,2.69821364 C10.0034292,2.73292273 10.0184966,2.75017273 10.0486315,2.75017273 L10.420564,2.75017273 L10.4910472,2.76052273 C10.5110697,2.78822727 10.5210809,2.83840909 10.5210809,2.91117273 C10.5210809,2.99083636 10.5026764,3.03244545 10.4658674,3.036 C10.2848562,3.04635 10.0955528,3.05157727 9.8979573,3.05157727 C9.88450787,3.05157727 9.87439551,3.05837273 9.86772135,3.07227727 C9.84426067,3.17619545 9.80411461,3.29234545 9.7470809,3.42051818 C9.7505191,3.42051818 9.77478876,3.41623182 9.82009213,3.40755455 C9.86529438,3.39887727 9.93062022,3.38758636 10.0160697,3.37378636 C10.1015191,3.35988182 10.1911146,3.34775455 10.2848562,3.3373 C10.3520022,3.3304 10.4073169,3.32695 10.4508,3.32695 C10.4809348,3.32695 10.5093506,3.34430455 10.5362494,3.37890909 C10.5630472,3.41351364 10.5764966,3.44822273 10.5764966,3.48282727 L10.5764966,3.48272273 Z" id="Fill-11" fill="#22FF4C"></path>
                    <path d="M11.6303966,3.42549455 C11.8046326,3.40469 11.9688573,3.32513091 12.1229697,3.18650364 C12.2669697,3.05843545 12.3390708,2.88865364 12.3390708,2.67736727 C12.3390708,2.58024455 12.3172281,2.53173545 12.2737449,2.53173545 C12.2100371,2.53173545 12.0928348,2.64255364 11.9218348,2.86429455 C11.8950371,2.90245364 11.8447787,2.99340818 11.7710596,3.13715818 C11.6973404,3.28101273 11.6504191,3.37709 11.6303966,3.42549455 L11.6303966,3.42549455 Z M11.012127,5.29100364 L10.9970596,5.33261273 C10.8965427,5.32226273 10.8152393,5.27804 10.7533517,5.20004909 C10.6913629,5.12205818 10.6604191,5.02775818 10.6604191,4.91694 C10.6604191,4.87188091 10.6696213,4.79315818 10.6880258,4.68045818 C10.7064303,4.56786273 10.7457674,4.40592182 10.8061382,4.19463545 C10.8664079,3.98324455 10.938509,3.77195818 11.0222393,3.56056727 C10.9618685,3.42549455 10.9317337,3.29909909 10.9317337,3.18138091 C10.9317337,3.01849909 10.9752169,2.84098091 11.0623854,2.64872182 C11.1495539,2.45646273 11.2408685,2.30152636 11.3363292,2.18370364 C11.431891,2.06598545 11.4980258,2.00524455 11.5348348,2.00179455 C11.5885315,2.00879909 11.6154303,2.05730818 11.6154303,2.14721727 C11.6154303,2.16457182 11.6137112,2.18192636 11.610273,2.19917636 C11.606936,2.21653091 11.6018798,2.23210818 11.5952056,2.24601273 C11.5885315,2.25991727 11.5784191,2.27894455 11.5650708,2.30319909 C11.5517225,2.32745364 11.539082,2.34909455 11.5273517,2.36812182 C11.5155202,2.38714909 11.4963067,2.41663091 11.469509,2.45646273 C11.4427112,2.49629455 11.4192506,2.53184 11.399127,2.56299455 C11.2684753,2.77428091 11.2032506,2.95096273 11.2032506,3.09293545 C11.2032506,3.12764455 11.2082056,3.14844909 11.2182169,3.15524455 L11.2282281,3.15524455 C11.2316663,3.15524455 11.2383404,3.14834455 11.2483517,3.13454455 C11.4193517,2.89900364 11.5994528,2.68071273 11.7886551,2.47988091 C11.9779584,2.27894455 12.1296438,2.17847636 12.2436101,2.17847636 C12.3574753,2.17847636 12.4404978,2.24946273 12.4923742,2.39154 C12.5442506,2.53351273 12.5702393,2.67726273 12.5702393,2.82279 C12.5702393,3.09994 12.4412056,3.34415818 12.1832393,3.55544455 C11.9251719,3.76673091 11.6940034,3.87232182 11.4895315,3.87232182 C11.469509,3.87232182 11.4327,3.87587636 11.3790034,3.88277636 C11.3188348,4.06301273 11.2710034,4.21711273 11.2358124,4.34528545 C11.2005202,4.47356273 11.1595652,4.64240364 11.1126438,4.85201727 C11.0658236,5.06152636 11.0322506,5.20789 11.012127,5.29100364 Z" id="Fill-13" fill="#22FF4C"></path>
                    <polygon id="Fill-15" fill="#22FF4C" points="0.576960674 5.04431818 0.576960674 10.6767045 3.81291573 14.0221591 0.576960674 17.3676136 0.576960674 23 6.02499438 23 9.26094944 19.6545455 12.4937697 23 17.9418034 23 17.9418034 17.3676136 14.7058483 14.0221591 17.9418034 10.6767045 17.9418034 5.04431818 12.4969045 5.04431818 9.26094944 8.38977273 6.02185955 5.04431818"></polygon>
                </g>
            </g>
        </g>
    </g>
</svg>