<?xml version="1.0" encoding="UTF-8"?>
<svg width="70px" height="40px" viewBox="0 0 70 40" version="1.1" xmlns="http://www.w3.org/2000/svg" xmlns:xlink="http://www.w3.org/1999/xlink">
    <!-- Generator: Sketch 43.1 (39012) - http://www.bohemiancoding.com/sketch -->
    <title>disney-junior-network-logo</title>
    <desc>Created with Sketch.</desc>
    <defs></defs>
    <g id="Page-1" stroke="none" stroke-width="1" fill="none" fill-rule="evenodd">
        <g id="disney-junior-network-logo" fill-rule="nonzero">
            <g id="LogoDisneyJunior" transform="translate(8.000000, 10.000000)">
                <path d="M36.8776353,15.1912887 C36.8776353,17.8773575 38.8730396,19.8444858 42.147209,19.8444858 C45.4213784,19.8444858 47.4167821,17.8773575 47.4167821,15.1912887 C47.4167821,12.5052199 45.4913107,10.5380923 42.147209,10.5380923 C38.8031067,10.5380923 36.8776353,12.5052199 36.8776353,15.1912887 Z M42.1477017,13.9000244 C42.8193239,13.9000244 43.3631872,14.4782202 43.3631872,15.1912887 C43.3631872,15.9043572 42.8193239,16.4825537 42.1477017,16.4825537 C41.4760801,16.4825537 40.9312264,15.9043579 40.9312264,15.1912887 C40.9312264,14.4782202 41.4760801,13.9000244 42.1477017,13.9000244 Z" id="rect2997" fill="#E63434"></path>
                <path d="M54.7136481,10.5754468 C54.7136481,10.5754468 53.681661,10.4522013 52.8817195,10.9240449 C52.1669808,11.3456312 51.9469769,11.6461192 51.8043884,12.1897803 L51.8043884,10.7824129 L47.607503,10.7824129 L47.607503,19.698095 L51.8043884,19.698095 L51.8043884,16.7601904 C51.8043884,14.9579447 52.5928806,14.3520858 53.4047058,14.3520858 C54.1629853,14.3520858 54.7136481,14.6844749 54.7136481,14.6844749 L54.7136481,10.5754468 Z" id="rect3004" fill="#E63434"></path>
                <path d="M29.4384667,10.5391016 C28.4007913,10.5391016 27.8642644,10.7824129 27.8642644,10.7824129 C27.212002,11.2860723 26.7325839,11.7855433 26.3859178,12.2654991 L26.3859178,10.7824129 L22.1890343,10.7824129 L22.1890343,19.698095 L26.4214929,19.698095 L26.4214929,15.8434834 C26.4214929,14.9214573 26.7035571,14.6744669 27.1488079,14.6683215 C27.5940587,14.6621767 27.8642644,14.9243553 27.8642644,15.8121864 L27.8642644,19.698095 L32.0611466,19.698095 L32.0611466,15.239749 L32.0611466,13.6082528 C32.1565292,11.7081077 30.4761414,10.5391016 29.4384667,10.5391016 Z" id="rect3006" fill="#E63434"></path>
                <polygon id="rect3010" fill="#E63434" points="32.3951619 13.023701 32.3951619 19.698095 36.5910537 19.698095 36.5910537 13.023701 32.3951612 13.023701"></polygon>
                <polygon id="rect3014" fill="#282828" points="32.3951619 10.7824129 32.3951619 13.023701 36.5910537 13.023701 36.5910537 10.7824129 32.3951612 10.7824129"></polygon>
                <path d="M34.1116501,14.1193211 C34.1116501,14.3480416 33.919488,14.5334563 33.6824441,14.5334563 C33.4454002,14.5334563 33.2532382,14.3480416 33.2532382,14.1193211 C33.2532382,13.8906005 33.4454002,13.7051859 33.6824441,13.7051859 C33.919488,13.7051859 34.1116501,13.8906005 34.1116501,14.1193211 L34.1116501,14.1193211 Z" id="path3020" fill="#FFE658"></path>
                <path d="M35.9238483,14.1193211 C35.9238483,14.3480416 35.7316862,14.5334563 35.4946424,14.5334563 C35.2575985,14.5334563 35.0654364,14.3480416 35.0654364,14.1193211 C35.0654364,13.8906005 35.2575985,13.7051859 35.4946424,13.7051859 C35.7316862,13.7051859 35.9238483,13.8906005 35.9238483,14.1193211 L35.9238483,14.1193211 Z" id="path3022" fill="#FFE658"></path>
                <path d="M11.9226281,10.7127509 L11.9226281,15.8122575 C11.9226281,18.2192384 13.8188659,19.8717444 16.9001899,19.8717444 C19.981514,19.8717444 21.8787396,18.2192377 21.8787396,15.8122568 L21.8787396,10.7127509 L17.6275048,10.7127509 L17.6275048,15.3376795 C17.6275048,15.7034112 17.3392054,15.9979508 16.9006839,15.9979508 C16.4621623,15.9979508 16.1738629,15.7034112 16.1738629,15.3376795 L16.1738629,10.7127509 L11.9226281,10.7127509 Z" id="rect3800" fill="#E63434"></path>
                <path d="M2.69200408,18.2570884 C3.0416661,18.7222574 4.16459354,19.8717444 6.48276976,19.8717444 C9.71007035,19.8717444 11.4613195,18.2192377 11.4613195,15.8122568 L11.4613195,7.09280851 C9.91114826,8.6765332 8.9350872,8.85514875 7.04690937,8.85514875 L7.04690937,13.8230669 C7.04690937,15.4339216 6.24577135,15.3787499 5.80724946,15.3787499 C5.36872853,15.3787499 4.66083355,14.9175023 4.66083355,14.5517706 L2.69200408,18.2570884 Z" id="path3814" fill="#E63434"></path>
                <path d="M15.0789377,1.88490308 C15.2427758,1.88491019 15.3379092,1.91433786 15.3625513,1.97273702 C15.387187,2.03115104 15.3991112,2.10580896 15.3991144,2.19787574 C15.3991112,2.38993612 15.3317302,2.55943338 15.1965338,2.70569879 C15.061331,2.85197713 14.8952123,2.97485237 14.6984812,3.07520845 C14.5017444,3.17557745 14.2969369,3.25309387 14.083821,3.30741397 C13.8707006,3.3617457 13.686265,3.38919684 13.5304292,3.38919102 L13.2596625,3.38919102 C13.2434023,3.38919684 13.2230311,3.3759549 13.1983941,3.35082663 C13.1737546,3.32570999 13.1618304,3.30582577 13.1618304,3.28924137 C13.2848978,3.1137725 13.4213364,2.94154336 13.5729215,2.77435086 C13.724504,2.60717129 13.8823023,2.45684555 14.0462694,2.3230648 C14.210234,2.18929698 14.3791412,2.0833628 14.5512391,2.00403461 C14.7233326,1.92472063 14.8985845,1.88491019 15.0789377,1.88490308 Z M13.4681723,1.75971402 C13.4846798,1.77629971 13.4938642,1.79706591 13.4938655,1.82230855 L13.4938655,1.83442362 C13.4200734,1.90125422 13.3351875,1.98074783 13.2408864,2.07268667 C13.1465828,2.16463974 13.0552276,2.25834189 12.965179,2.35436175 C12.875128,2.45039581 12.7911054,2.54027219 12.7131878,2.62392239 C12.635269,2.70758552 12.5753471,2.77854558 12.534324,2.83694539 C12.5180644,2.85378567 12.4978185,2.86219191 12.4730556,2.86218545 C12.456796,2.86219191 12.440155,2.85378567 12.4236456,2.83694539 C12.4484085,2.59465367 12.5507499,2.37139133 12.7309754,2.16657815 C12.9112002,1.96177918 13.1567481,1.82654462 13.4681723,1.75971402 Z M14.2063577,0.906610799 C13.9111919,0.906619199 13.6224883,0.969045089 13.3397064,1.09439439 C13.0569232,1.2197605 12.8031794,1.37689846 12.5778048,1.56486297 C12.3524295,1.75284364 12.1696692,1.96004753 12.0303422,2.18576067 C11.8910152,2.41148802 11.8218317,2.62806542 11.8218317,2.83694539 C11.8218317,2.97901544 11.8523252,3.10857497 11.9137346,3.22563757 C11.9751434,3.3427118 12.0507203,3.46386509 12.1410205,3.58908969 C12.1327665,3.62250661 12.1245706,3.65849192 12.1163152,3.69610615 C12.1080605,3.73373136 12.1044568,3.76870676 12.1044568,3.80211269 C12.1209663,3.94418144 12.159655,4.06621671 12.2210644,4.16657472 C12.2824732,4.26694243 12.3462505,4.32465992 12.4117872,4.34123334 C12.5020869,4.32465992 12.5693426,4.28770798 12.6143678,4.22916926 C12.6593924,4.17063957 12.7148486,4.09980744 12.7803854,4.01614561 C12.8951987,4.05797975 13.0225022,4.08626957 13.1618304,4.10297028 C13.3011574,4.11968132 13.432064,4.12821486 13.5551339,4.12821033 C13.7599964,4.12821486 14.0018153,4.06578961 14.2804724,3.94042674 C14.5591251,3.8150742 14.8247936,3.6542384 15.0789377,3.45784309 C15.3330761,3.26145941 15.5489944,3.04004632 15.7252203,2.79353338 C15.9014398,2.54703272 15.9890654,2.30212285 15.9890699,2.05956169 C15.9890661,1.94275561 15.9623015,1.84337779 15.9090254,1.75971402 C15.8557423,1.67606446 15.7920902,1.60409513 15.7183032,1.5456811 C15.6445092,1.48728194 15.5688071,1.44562225 15.4910173,1.42049204 C15.4132211,1.39537733 15.3505576,1.38314467 15.3012829,1.38313691 C15.284771,1.38314467 15.2736601,1.38499133 15.2696605,1.38919122 C15.2656571,1.39340403 15.2601245,1.39626642 15.2518729,1.39625866 C15.2108467,1.25420284 15.0936668,1.13687532 14.9010618,1.04492162 C14.7084523,0.952984059 14.4767564,0.906615968 14.2063577,0.906607569 L14.2063577,0.906610799 Z" id="path3860" fill="#282828"></path>
                <path d="M21.2798906,4.16556481 C21.222606,4.16556998 21.1883837,4.19772887 21.1761294,4.2604662 C21.16387,4.32321386 21.1573507,4.3798368 21.1573539,4.43007719 L21.1573539,4.47954738 L21.193917,4.62997585 C21.2677059,4.92252412 21.3378766,5.17323695 21.4034153,5.38212015 C21.4689489,5.59101046 21.5262069,5.78968082 21.575362,5.97777779 C21.6245114,6.16588122 21.6632008,6.36270169 21.6919696,6.56737822 C21.7207327,6.77205959 21.7354472,7.01621477 21.7354503,7.30033999 C21.7354472,7.40899247 21.7336479,7.49033532 21.7295243,7.54466059 C21.7253944,7.59898779 21.7023588,7.62643828 21.6613382,7.62643699 C21.6695898,7.62643828 21.6408994,7.59230286 21.5753652,7.52547807 C21.4115214,7.31659293 21.2454033,7.07441363 21.0773126,6.79857383 C20.9092168,6.5227379 20.7478161,6.26164262 20.5921062,6.01513227 C20.4363938,5.76862838 20.2906462,5.55944795 20.155322,5.38817768 C20.0199959,5.21691452 19.9074069,5.1317459 19.8173577,5.13174202 C19.7273067,5.1317459 19.6450865,5.1904733 19.5712963,5.30741055 C19.4975042,5.42435555 19.4274587,5.57480857 19.361798,5.75869661 C19.296136,5.94259175 19.2390032,6.1449606 19.1898513,6.36646932 C19.1406987,6.58798418 19.1000823,6.80939727 19.0673145,7.03077935 C19.0345461,7.25216595 19.0095834,7.45651133 18.9931992,7.6446096 C18.9768157,7.83271045 18.9684946,7.98118758 18.9684946,8.08983877 C18.9684946,8.16507949 18.9750132,8.25979092 18.98727,8.3725231 C18.9995269,8.48525658 19.0244896,8.59304065 19.0613853,8.69761083 C19.0982804,8.80218231 19.1470921,8.89205869 19.2086268,8.96717148 C19.2701614,9.04228363 19.3504551,9.08024547 19.4487596,9.08024547 C19.5142951,9.08024547 19.569626,9.05750274 19.6147771,9.0115934 C19.6599263,8.96568472 19.6940235,8.91078245 19.7185378,8.84803995 C19.7430508,8.78529745 19.7634213,8.72102297 19.7798061,8.65419882 C19.7961897,8.58737661 19.8091024,8.53247434 19.8173577,8.49064537 C19.8338659,8.39041076 19.8475932,8.24651409 19.8598506,8.05854118 C19.8721062,7.8705702 19.8823538,7.67660824 19.8904845,7.47600852 C19.8986133,7.27541203 19.9069338,7.09565927 19.9151898,6.93688787 C19.9234432,6.77812036 19.9316391,6.6778612 19.9398945,6.63603029 C19.9644075,6.54395963 19.9930991,6.49771947 20.0258682,6.49771624 C20.0503806,6.49771947 20.0937867,6.55631894 20.155322,6.67338476 C20.2168554,6.79045641 20.2888273,6.9342245 20.3707495,7.10548895 C20.4526692,7.27675793 20.5420967,7.46319562 20.6405283,7.66379212 C20.7389562,7.86439119 20.8442126,8.0507016 20.9547758,8.22209463 C21.0653346,8.39349025 21.1816525,8.5372577 21.3045985,8.65419882 C21.4275394,8.77113994 21.5465218,8.82986799 21.6613382,8.82986734 C21.8089174,8.82986799 21.9417523,8.77782488 22.0605709,8.67338069 C22.1793838,8.5689378 22.2799227,8.43454257 22.3619721,8.27156418 C22.4440138,8.10858773 22.5058634,7.92883497 22.5467651,7.73244418 C22.5876592,7.53605533 22.6080297,7.34222066 22.6080335,7.14991088 C22.6080297,6.71530549 22.5545012,6.31413997 22.4479451,5.9464802 C22.3413821,5.57882754 22.2167437,5.26283032 22.0734178,4.99948551 C21.9300849,4.73614975 21.7824115,4.5319323 21.6307043,4.38565526 C21.4789921,4.23938856 21.3619368,4.16556998 21.2798932,4.16556481 L21.2798906,4.16556481 Z" id="path3858" fill="#282828"></path>
                <path d="M16.9476235,4.80564438 C16.931362,4.8056489 16.8592636,4.80947597 16.732196,4.81775945 C16.6051227,4.82605327 16.4492528,4.84509751 16.2647772,4.87429645 C16.0802979,4.90350443 15.8856134,4.94516412 15.6807516,4.99948551 C15.4758866,5.05381595 15.2857949,5.12662461 15.1095722,5.21856669 C14.9333482,5.31051653 14.7876019,5.42784404 14.672788,5.56990374 C14.557974,5.71197055 14.5008412,5.879364 14.5008412,6.07166926 C14.5008412,6.20531949 14.517357,6.31596207 14.5502512,6.40382476 C14.5831442,6.4916923 14.6541289,6.56252508 14.7646902,6.61684777 C14.8752516,6.67117562 15.0377647,6.71098671 15.2508844,6.7359793 C15.4640023,6.76097705 15.7463124,6.77804476 16.0987597,6.78645876 C16.2300805,6.7864607 16.3978752,6.80066925 16.6027415,6.82987142 C16.8076034,6.85907617 17.0088059,6.89875932 17.2055433,6.94900295 C17.402275,6.99924915 17.570195,7.0645342 17.7095251,7.14385334 C17.8488495,7.22317572 17.9190202,7.31687852 17.9190234,7.42552906 C17.9190202,7.54259876 17.8286036,7.64285792 17.6482567,7.72638665 C17.4679029,7.80991731 17.2648979,7.87902685 17.0395257,7.93335211 C16.8141479,7.98767932 16.5972911,8.02736183 16.3883025,8.05248364 C16.1793095,8.07760675 16.045612,8.08983941 15.9880813,8.08983877 C15.873516,8.08983941 15.7589999,8.08799082 15.6441879,8.08378446 C15.5293733,8.07957811 15.4223145,8.06919404 15.3240112,8.05248687 C15.2257054,8.03578229 15.1464003,8.00450473 15.0848669,7.9585954 C15.0233316,7.91268736 14.9919755,7.85211071 14.9919761,7.77686934 C14.9919755,7.63480705 15.0334546,7.54690721 15.1155014,7.51336623 C15.1975457,7.47982848 15.2833701,7.46288806 15.3734212,7.46288677 C15.4962387,7.46288806 15.6171476,7.47982848 15.7360908,7.51336623 C15.8550302,7.54690656 15.9722113,7.58289187 16.0869013,7.62038269 C16.2015881,7.65787738 16.3095849,7.69100289 16.4120193,7.72033234 C16.5144486,7.74966374 16.6112593,7.76374565 16.7015615,7.76374436 C16.8573953,7.76374565 17.0003526,7.73444592 17.1314286,7.67591042 C17.2624984,7.6173775 17.3529144,7.56361308 17.4021953,7.51336623 C17.4184518,7.49678894 17.4268968,7.47206967 17.4269,7.43865663 C17.4268968,7.42182475 17.4184511,7.40475704 17.4021953,7.38817716 C17.1480513,7.25427753 16.8795924,7.1559949 16.5968123,7.09337711 C16.3140278,7.03076384 16.0537648,6.99948822 15.8161346,6.99948564 C15.6930647,6.99948822 15.5657612,7.0117196 15.4346896,7.03684012 C15.303616,7.06196516 15.1827059,7.10362485 15.0720206,7.16202918 C14.9613334,7.22043803 14.8719053,7.29993099 14.8022418,7.40029224 C14.7325783,7.50065607 14.6974926,7.62638982 14.6974926,7.77686934 C14.6974926,7.90209976 14.7510218,8.03561365 14.857581,8.17767594 C14.9641396,8.31974016 15.107222,8.4492997 15.2874481,8.56636747 C15.4676717,8.68343652 15.6762074,8.77987055 15.9139667,8.85510998 C16.1517221,8.93035006 16.4025996,8.96818398 16.6649984,8.96818398 C16.763301,8.96818398 16.9147033,8.9578012 17.1195702,8.93688639 C17.3244308,8.91597287 17.5311653,8.85737276 17.7401596,8.76121786 C17.9491475,8.66506426 18.1337091,8.52226279 18.2935514,8.33416194 C18.4533861,8.14606303 18.5336791,7.88114101 18.5336836,7.53860564 C18.5336791,7.24606319 18.4635084,7.01809374 18.3241853,6.85511341 C18.1848539,6.69213825 18.0132056,6.57098496 17.8083451,6.49166129 C17.6034775,6.41234344 17.3773123,6.36214989 17.1314286,6.34123314 C16.8855386,6.32032156 16.6603619,6.30153189 16.4555001,6.28469614 C16.2096114,6.26812079 15.9964841,6.24340152 15.8161346,6.20998654 C15.6357827,6.17657738 15.4265089,6.11326951 15.1886282,6.02119303 C15.1723679,6.02119626 15.1649101,6.01354471 15.1649114,5.99696289 C15.1649101,5.98013296 15.1723679,5.96332047 15.1886282,5.94648343 C15.2544135,5.90491355 15.3363844,5.87166011 15.4346896,5.84653442 C15.5329928,5.8214152 15.6853843,5.79211546 15.8902499,5.75869984 C15.9885525,5.7418699 16.1315097,5.72492948 16.3201164,5.70822037 C16.5087193,5.69151838 16.7079954,5.67445067 16.916989,5.65774091 C17.1259776,5.64103892 17.3279947,5.62683036 17.5247321,5.6143289 C17.7214632,5.60183519 17.8737288,5.58674401 17.9802918,5.56990697 C18.029316,5.56174885 18.0966957,5.55123813 18.182873,5.53860939 C18.2690415,5.52598839 18.3364225,5.51177919 18.3854536,5.49519737 C18.4509866,5.47020608 18.511035,5.43422141 18.5643181,5.38818091 C18.6175936,5.34214752 18.6479618,5.28169881 18.6562203,5.20645485 C18.6562159,5.13963523 18.6442911,5.09427705 18.6196573,5.06915072 C18.5950146,5.04403214 18.5616055,5.02683714 18.5208373,5.01867126 C18.3157187,4.96843022 18.0806695,4.92021353 17.8142742,4.87429968 C17.5478733,4.82839551 17.2590439,4.80565213 16.9476235,4.80564761 L16.9476235,4.80564438 Z" id="path3854" fill="#282828"></path>
                <path d="M13.1124205,4.8429995 C13.0713967,4.84300338 13.0463088,4.87243169 13.0383058,4.93083344 C12.956259,5.56617036 12.9028551,6.0570853 12.8782175,6.40382476 C12.8535786,6.75056907 12.837799,6.97000563 12.8297954,7.06207694 C12.82154,7.22913762 12.815146,7.36067369 12.8110199,7.456826 C12.80689,7.55298154 12.8032876,7.64285792 12.7991615,7.72638665 C12.7950316,7.80991731 12.7922438,7.90176958 12.7922438,8.00200418 C12.7922431,8.09407807 12.7922431,8.21993912 12.7922438,8.37858064 C12.7922431,8.41224826 12.7986372,8.4621869 12.8110199,8.52900976 C12.8234019,8.5958339 12.8400423,8.66494408 12.8604299,8.73597522 C12.8808149,8.80700701 12.9047904,8.87325868 12.9335566,8.93587389 C12.9623216,8.9984891 12.9972821,9.03447377 13.0383058,9.04289035 C13.0873325,9.05972416 13.1445905,9.07666393 13.2102525,9.09336981 C13.2759126,9.11007633 13.3341585,9.11759995 13.3831871,9.11759995 C13.5390223,9.11759995 13.6413631,9.07039253 13.6905175,8.97423828 C13.7396689,8.87808468 13.7636424,8.77967412 13.7636443,8.67943823 C13.7636424,8.17800805 13.7479893,7.66620027 13.7152222,7.14385334 C13.6824526,6.62151029 13.6576151,6.10499443 13.6411076,5.59514315 C13.6248467,5.3528482 13.5878346,5.16926902 13.5304292,5.04390744 C13.4730207,4.91855425 13.333793,4.85142061 13.1124205,4.8429995 L13.1124205,4.8429995 Z" id="path3852" fill="#282828"></path>
                <path d="M25.608205,4.85612384 C25.3540609,4.85612836 25.1252799,4.86848832 24.920418,4.89347896 C24.7155518,4.91847865 24.5282005,4.9459285 24.3601085,4.97525537 C24.1920134,5.00459064 24.0371326,5.03103186 23.8936783,5.05602251 C23.7502227,5.08102155 23.612671,5.09808926 23.4815994,5.10650197 C23.3750389,5.11492307 23.2947465,5.13199078 23.2414666,5.15698143 C23.1881866,5.18198047 23.1614227,5.22721136 23.1614227,5.29428556 C23.1614227,5.36111294 23.1845823,5.42168958 23.2296082,5.47601162 C23.2746328,5.53034141 23.3318914,5.58053464 23.4015549,5.62644074 C23.4712184,5.6723533 23.5467946,5.71401299 23.6288408,5.7516298 C23.7108857,5.78925307 23.7892523,5.82523774 23.8630444,5.85864626 L23.5675724,6.5481957 C23.5102898,6.55661487 23.4548336,6.57069678 23.4015549,6.59160836 C23.348275,6.61252446 23.2966736,6.63156936 23.2473958,6.64814536 C23.2311362,6.69839221 23.2171603,6.73992396 23.2049035,6.77333442 C23.192646,6.80674746 23.1861274,6.84928913 23.1861274,6.89953275 C23.1861274,6.96635754 23.1991647,7.02025055 23.223679,7.06207694 C23.248192,7.10390721 23.2684373,7.15779827 23.2849474,7.22462048 C23.2194106,7.41667504 23.1521555,7.6069398 23.0823667,7.79503871 C23.0125774,7.98314021 22.9776176,8.14868441 22.9776176,8.2907467 C22.9776176,8.55829657 23.0549957,8.80034728 23.2108327,9.01765094 C23.3666691,9.2349546 23.6166833,9.34374794 23.9608759,9.34374794 C24.1657396,9.34374794 24.3623499,9.31259896 24.5508314,9.24985646 C24.7393097,9.18711396 24.9173519,9.1095969 25.0854471,9.01765094 C25.2535378,8.92570498 25.4040021,8.83200283 25.5350782,8.73597522 C25.6661479,8.63994891 25.7722177,8.55772409 25.8542664,8.49064537 C25.903541,8.45723426 25.9283785,8.39468173 25.9283817,8.30286177 C25.9283785,8.21920511 25.8952199,8.13601431 25.8295617,8.05248364 C25.7638972,7.96895556 25.6945897,7.92729587 25.6210513,7.92729458 C25.5552621,7.92729587 25.4871431,7.92914253 25.4174821,7.93334888 C25.3478155,7.9375617 25.2804358,7.94336142 25.2149015,7.95152149 C24.8214298,7.99335111 24.5123552,8.03774267 24.2869818,8.083778 C24.0616052,8.12981527 23.9323746,8.15243071 23.8996075,8.15243007 C23.9651436,8.01036713 24.0224004,7.86857558 24.0715542,7.72638342 C24.1207049,7.58419384 24.1613214,7.44610013 24.194091,7.31245183 C24.2105985,7.27904202 24.235436,7.26298358 24.2682063,7.26298164 C24.5796286,7.26298358 24.8601363,7.25814853 25.1101524,7.2498573 C25.3601634,7.24156995 25.5427985,7.23303577 25.657615,7.22461725 C25.7148932,7.21620261 25.7519066,7.17651945 25.7682933,7.10548572 C25.7846737,7.03445652 25.7929948,6.97400716 25.792998,6.92375966 C25.7929948,6.86535533 25.7882799,6.8009529 25.7801517,6.72991853 C25.7720197,6.65888932 25.7516486,6.60213846 25.7188833,6.56030754 L25.5469366,6.5360774 L24.6368044,6.5360774 C24.5957801,6.53608063 24.567213,6.52098881 24.5508314,6.49165547 C24.5344459,6.46232796 24.5261248,6.43487682 24.5261261,6.40987907 C24.5261248,6.25098459 24.5445676,6.12995858 24.5814653,6.04642663 C24.6183591,5.96290048 24.6498404,5.90888084 24.674356,5.88388244 C24.7153766,5.87546909 24.7761137,5.87076133 24.8581611,5.8707581 C24.9402048,5.87076133 25.0139792,5.86891661 25.0795179,5.8647038 C25.1450521,5.86049744 25.2106306,5.85864949 25.2761699,5.85864949 C25.3417041,5.85865272 25.4201947,5.856808 25.5103729,5.85259519 C25.6005454,5.84838883 25.7113319,5.8415779 25.842408,5.83341267 C25.8999373,5.8334159 25.9671931,5.82303312 26.0449892,5.80211573 C26.122779,5.78120479 26.1947522,5.75858935 26.2604167,5.73346366 C26.3260749,5.70834443 26.3832084,5.6808933 26.4323635,5.65168661 C26.4815122,5.62248703 26.506475,5.59121011 26.5064781,5.55779513 C26.5064743,5.44914653 26.454747,5.33665471 26.352319,5.21958242 C26.2498839,5.10251789 26.1697155,5.009783 26.1121868,4.94295497 C25.9811107,4.90113117 25.8786441,4.87653919 25.8048564,4.86824537 C25.7310624,4.8599606 25.6654832,4.85613482 25.608205,4.8561303 L25.608205,4.85612384 Z" id="path3850" fill="#282828"></path>
                <path d="M4.50717847,5.83340621 L4.6425615,5.83340621 L4.53188315,8.26550665 C4.24497069,8.19842921 3.96347452,8.09829735 3.68894918,7.9646497 C3.41441942,7.83100335 3.17924436,7.68067826 2.98238677,7.513363 C2.89233507,7.44654079 2.79626309,7.37074568 2.69383248,7.28721501 C2.59139935,7.20368693 2.49266224,7.11851895 2.39836048,7.03077935 C2.30405746,6.94304427 2.22655383,6.85316724 2.16514537,6.76121935 C2.10373564,6.66927533 2.07324217,6.58137484 2.0732428,6.49771624 C2.07324217,6.38906732 2.15074548,6.29919029 2.30645823,6.22815592 C2.46216877,6.15712671 2.6587797,6.09655007 2.89641309,6.04642986 C3.13404395,5.99631546 3.3961088,5.95650502 3.68301999,5.92729833 C3.96992738,5.8980981 4.24477969,5.86682183 4.50717847,5.83340621 L4.50717847,5.83340621 Z M2.89641309,0.0292780875 C2.75708422,0.0292871334 2.58916428,0.0311389623 2.39243128,0.0353323921 C2.19569607,0.0395516674 1.9926911,0.0547681962 1.78370032,0.0797543179 C1.5747089,0.104758532 1.36617317,0.143559065 1.15718176,0.197875934 C0.948190976,0.252210895 0.763629628,0.32418023 0.603789968,0.411908849 C0.443952079,0.49965556 0.312919655,0.610298139 0.210486519,0.744064027 C0.10805585,0.877846714 0.0563287698,1.04040447 0.0563273784,1.23270521 C0.0563287698,1.31611505 0.120105624,1.37013405 0.247049905,1.39524875 C0.373996653,1.42037961 0.506705822,1.4336209 0.646282552,1.43361314 C0.711819824,1.4336209 0.771867766,1.43076368 0.825146683,1.42654634 C0.878426929,1.42234645 0.917241133,1.4204985 0.941754239,1.42049204 C0.974522938,1.38708804 0.991164726,1.35396188 0.99116422,1.32054238 C0.991164726,1.2787218 0.969930925,1.24559629 0.928907644,1.22059337 C0.912649183,1.21218454 0.880353934,1.20365101 0.831075881,1.19535332 C0.781799157,1.18707242 0.730197112,1.17668965 0.67691674,1.16405637 C0.62363795,1.15143925 0.574700913,1.13634808 0.529674997,1.11963445 C0.484650914,1.10293633 0.462478434,1.08204284 0.462477423,1.05703992 C0.462478434,0.998641399 0.556498434,0.94844753 0.745102514,0.906610799 C0.90894424,0.864790868 1.07698896,0.835491134 1.24908432,0.81877686 C1.42118,0.802079385 1.58897471,0.793545206 1.75306613,0.793536806 C2.56451652,0.793545206 3.32480917,0.865514541 4.03383117,1.00756972 C4.74284685,1.1496417 5.46166104,1.36252062 6.19107062,1.64664002 C6.53525723,1.78029413 6.89425672,1.93928133 7.26722001,2.12316614 C7.64017129,2.30706516 8.00457631,2.5112826 8.36115668,2.73699638 C8.7177225,2.96272309 9.05815395,3.20960949 9.3819672,3.47702496 C9.70576401,3.74445206 9.98906266,4.03013964 10.2308304,4.3351758 C10.472581,4.64022165 10.6644751,4.96189455 10.8079389,5.3003431 C10.9513844,5.63880005 11.023357,5.99263119 11.0233665,6.36041178 C11.023357,6.73635987 10.9513844,7.05618288 10.8079389,7.31952187 C10.6644745,7.58286409 10.4763099,7.80599785 10.2426888,7.98988911 C10.0090499,8.17378232 9.74419533,8.32040892 9.44916477,8.4290601 C9.15411714,8.53771258 8.8533642,8.6228812 8.54595032,8.68549576 C8.23852253,8.74811097 7.93678107,8.78792142 7.64174798,8.80462729 C7.34670288,8.82133381 7.08935483,8.82986734 6.86798737,8.82986734 C6.71239573,8.82986799 6.52590712,8.81464888 6.30866638,8.78544542 C6.09141583,8.75624196 5.88394387,8.6797348 5.68708882,8.55424916 L5.67523042,5.84552128 C5.72425335,5.82894657 5.76958657,5.81658661 5.81061345,5.8081668 C5.85163212,5.79975345 5.91236861,5.79605496 5.99441858,5.79605173 C6.24030131,5.79605496 6.49876183,5.81682116 6.7691674,5.85864626 C7.03956222,5.90047782 7.29609631,5.95252029 7.53798671,6.01513227 C7.77986509,6.07775071 7.99020203,6.14686089 8.17043447,6.22209838 C8.35065235,6.29734169 8.47422695,6.37199896 8.54002112,6.44723678 C8.49899108,6.53089603 8.42341483,6.61879587 8.31273521,6.71073989 C8.20204231,6.80268778 8.10137749,6.90294758 8.01133401,7.01159748 C8.07686445,7.0615891 8.16461531,7.1014002 8.27518363,7.13072901 C8.38573866,7.16006234 8.47808172,7.17515222 8.55187952,7.17515093 C8.65843179,7.17515222 8.76077259,7.1440026 8.85920928,7.08125881 C8.95763144,7.01851825 9.04804743,6.94285043 9.12997598,6.85511082 C9.21188935,6.76737574 9.27746723,6.6736723 9.32662802,6.57343575 C9.37577237,6.47320309 9.40073509,6.38517563 9.40074268,6.30993232 C9.40073446,6.10104847 9.33515658,5.91759723 9.20409127,5.75869661 C9.07301078,5.59980309 8.90037404,5.4655358 8.68726255,5.35688009 C8.47413651,5.24823214 8.23703438,5.15835576 7.97477094,5.08732009 C7.71249422,5.01629218 7.45136856,4.96240047 7.19310536,4.92477591 C6.9348314,4.88716039 6.69133522,4.8597099 6.46183764,4.8429995 C6.23232994,4.82629751 6.04776871,4.81776397 5.90844553,4.81775945 L5.7364988,4.81775945 C5.72023541,4.67570104 5.70818538,4.54046583 5.6999351,4.41089532 C5.69167659,4.28133384 5.68323025,4.15349626 5.67523042,4.02826068 C5.66697129,3.88620227 5.65504712,3.7528176 5.63866672,3.62745408 C5.62227873,3.50210154 5.59551418,3.38662392 5.55862287,3.28217456 C5.52172334,3.17773684 5.46999607,3.07562779 5.40446373,2.97525944 C5.33892317,2.87490272 5.24850717,2.7783414 5.13369703,2.68651692 C5.05990239,2.75334688 4.99904068,2.87265093 4.9498919,3.04391151 C4.90073616,3.21518436 4.85913185,3.39678636 4.82636663,3.58908969 C4.79359509,3.78140335 4.76781905,3.95733098 4.74731066,4.11609526 C4.72679595,4.27486989 4.71568511,4.37143055 4.71568827,4.40483778 L4.6909836,4.91770911 C4.08439347,5.02636481 3.58522649,5.14840008 3.19188509,5.28217049 C2.7985399,5.41594866 2.45798323,5.59086637 2.17107457,5.8081668 C1.90042361,6.00047852 1.76492421,6.19259188 1.76492452,6.38464192 C1.76492421,6.57695397 1.83037781,6.76994802 1.96157625,6.96212728 C2.09277374,7.15430978 2.22839805,7.325529 2.36772661,7.47600852 C2.53156663,7.66831831 2.79363084,7.90183613 3.15433351,8.17767271 C3.51503174,8.45351122 3.9781745,8.75824434 4.54374154,9.09236054 C4.58476147,9.28466904 4.62624056,9.4672816 4.66726681,9.63854799 C4.70828611,9.80981438 4.77386525,9.95358376 4.86391822,10.0706522 L5.14654331,10.0958922 C5.22833525,10.0958909 5.30223487,10.0921899 5.36790002,10.0837772 C5.43355759,10.0753599 5.50261582,10.0619907 5.57641046,10.0454128 C5.61717868,9.90334854 5.64878525,9.79754165 5.66930122,9.72638257 C5.68980834,9.6552222 5.70812719,9.58623996 5.7246404,9.51941646 C6.00329119,9.56124415 6.3004414,9.60277655 6.61599678,9.64460552 C6.93154204,9.68643321 7.23229498,9.70719941 7.51921123,9.70720006 C8.07651408,9.70719941 8.63200053,9.63808859 9.18531516,9.50023459 C9.73861461,9.36237865 10.236843,9.15332616 10.679473,8.87327936 C11.1220846,8.5932332 11.4800962,8.24238851 11.7546342,7.82027812 C12.0291513,7.39816968 12.1667023,6.90342831 12.1667137,6.33517237 C12.166703,5.90898486 12.0725574,5.4907513 11.8840886,5.08126256 C11.6955983,4.67178222 11.4455829,4.28112643 11.1340448,3.90912915 C10.8224871,3.5371422 10.4700063,3.18801947 10.0766712,2.86218545 C9.68331907,2.53636371 9.28190068,2.24214195 8.8720562,1.97879455 C8.4621959,1.71546202 8.05991548,1.48564269 7.66645266,1.28924544 C7.27297782,1.0928637 6.92508918,0.935853672 6.62192598,0.81877686 C6.01533363,0.601481598 5.38246972,0.416053173 4.72260599,0.261483609 C4.06273593,0.106931491 3.45372163,0.0292871334 2.89641309,0.0292780875 L2.89641309,0.0292780875 Z" id="path3848" fill="#282828"></path>
                <path d="M30.0798079,6.00907473 C30.1618491,6.00907796 30.2088589,6.05061036 30.2211221,6.1342638 C30.2333726,6.21792369 30.2398931,6.29359151 30.2398963,6.36041178 C30.2398931,6.87026145 30.0636521,7.27895156 29.7112111,7.5880726 C29.3342469,7.92244532 28.9328285,8.11556859 28.5065941,8.16555764 C28.5311059,8.11556859 28.5735242,8.02556493 28.6350601,7.89599764 C28.6965922,7.76643293 28.7667629,7.62833986 28.8445584,7.48206606 C28.9223501,7.33579548 28.9962491,7.19955165 29.0659151,7.07419201 C29.1355761,6.94883689 29.1863148,6.8609364 29.2190864,6.8106889 C29.268361,6.75228457 29.330086,6.67749937 29.4038794,6.58555083 C29.4776683,6.49360745 29.555171,6.40557967 29.6370945,6.32204739 C29.7190123,6.23852125 29.8011072,6.16571258 29.8831546,6.10296685 C29.9651996,6.04022694 30.0307781,6.00907796 30.0798079,6.00907473 Z M28.2723912,4.72992551 C28.2068525,4.73834661 28.0942641,4.83108215 27.9344269,5.00655296 C27.7745871,5.18203216 27.6102702,5.40529386 27.4423035,5.6769202 C27.2743336,5.94855301 27.1248577,6.25130895 26.9936608,6.58555083 C26.8624621,6.91979755 26.7970088,7.25000333 26.7970088,7.57595753 C26.7970088,7.72643963 26.8172541,7.87861332 26.8582772,8.03330177 C26.8993003,8.18799022 26.9528288,8.34042043 27.0183655,8.49064537 C26.8462695,8.90867475 26.7033123,9.30403764 26.588499,9.67590311 C26.4736851,10.0477666 26.3832691,10.3779731 26.3177323,10.6663098 C26.2521962,10.9546433 26.2050605,11.1949734 26.1764194,11.3871565 C26.147779,11.5793351 26.1339272,11.7050689 26.1339272,11.7637336 C26.1339272,12.0310244 26.2096293,12.2581119 26.3612131,12.4462159 C26.5127975,12.6343136 26.7112103,12.741257 26.9570971,12.7662554 L26.9936608,12.6652965 C27.0757064,12.3309212 27.1457519,12.0330009 27.2031592,11.7697912 C27.2605658,11.5065762 27.3196257,11.2491778 27.3810351,10.998465 C27.4424439,10.7477483 27.5126146,10.4866527 27.5905334,10.2150238 C27.668451,9.94339289 27.768126,9.62739566 27.8909461,9.26802907 C27.940222,9.25961249 27.9882197,9.25406475 28.0332468,9.24985646 C28.0782708,9.24565011 28.1206878,9.24278901 28.1617128,9.24278901 C28.3668251,9.24278901 28.6214321,9.18036312 28.9246029,9.05500542 C29.2277693,8.92964771 29.5183999,8.75460271 29.7971829,8.52900976 C30.0759595,8.30341809 30.3140514,8.03563756 30.510663,7.72638665 C30.7072689,7.41713832 30.8051433,7.07852565 30.8051465,6.71073989 C30.8051433,6.58551206 30.793092,6.4349311 30.7685815,6.25945286 C30.7440647,6.08398076 30.7024622,5.91562005 30.6450581,5.75263907 C30.5876477,5.5896652 30.5065394,5.44871298 30.3999846,5.33164069 C30.2934203,5.21457615 30.1622633,5.15698595 30.0066812,5.15698143 C29.8508404,5.15698595 29.6636162,5.24017804 29.4463723,5.40735956 C29.2291233,5.57454947 29.0058731,5.77691767 28.776373,6.01513227 C28.5468684,6.25335333 28.3254194,6.50406647 28.1123028,6.76727689 C27.8991831,7.03049182 27.719339,7.26241498 27.5717573,7.46288354 C27.547243,7.49629722 27.530602,7.51336494 27.5223473,7.513363 L27.4976427,7.513363 C27.481132,7.49678635 27.4710096,7.47391633 27.4670081,7.44471093 C27.4630048,7.41550941 27.4610758,7.38818621 27.4610821,7.36293453 C27.4610808,7.1374708 27.5165377,6.90739689 27.6270996,6.67338476 C27.7376597,6.43937846 27.8420528,6.24268431 27.9403586,6.08378434 C28.1289621,5.79124382 28.2644615,5.5832006 28.346509,5.45783902 C28.4285526,5.33248583 28.4690438,5.20675143 28.4690457,5.08126256 C28.4690438,4.96445325 28.4589215,4.88100593 28.4384112,4.83088443 C28.4178984,4.78077133 28.3626927,4.7467632 28.2723937,4.72992551 L28.2723912,4.72992551 Z" id="flowRoot3824" fill="#282828"></path>
                <path d="M32.8250265,4.21099665 C32.1631041,4.24529341 31.6372105,4.80640663 31.6372105,5.49115578 C31.6372105,6.19799359 32.1983846,6.76929606 32.8902477,6.76929606 C32.9865815,6.76929606 33.0788151,6.75799836 33.16892,6.73698921 C32.7573761,7.08608158 32.4949678,7.61176516 32.4949678,8.20089358 C32.4949678,9.25184915 33.328047,10.102959 34.3567359,10.102959 C35.3854255,10.102959 36.218504,9.25184915 36.218504,8.20089358 C36.218504,7.91551292 36.1566493,7.64427619 36.0465573,7.40129892 C36.2323299,7.51288421 36.4498344,7.57696744 36.6809814,7.57696744 C37.3728413,7.57696744 37.9340185,7.00364611 37.9340185,6.29680798 C37.9340185,5.58997018 37.3728413,5.01866803 36.6809814,5.01866803 C35.989119,5.01866803 35.4279443,5.58997018 35.4279443,6.29680798 C35.4279443,6.4331749 35.4486133,6.56525889 35.4872363,6.68852893 C35.1739413,6.44362423 34.7818097,6.29680798 34.3567359,6.29680798 C34.1551097,6.29680798 33.9614845,6.33115663 33.7796273,6.39170937 C34.0040894,6.1606019 34.1432848,5.84252437 34.1432848,5.49115578 C34.1432848,4.78431798 33.5821076,4.21099665 32.8902477,4.21099665 C32.8686268,4.21099665 32.8463792,4.20989046 32.8250265,4.21099665 L32.8250265,4.21099665 Z" id="path3834" fill="#282828"></path>
            </g>
        </g>
    </g>
</svg>