<?xml version="1.0" encoding="UTF-8"?>
<svg width="70px" height="40px" viewBox="0 0 70 40" version="1.1" xmlns="http://www.w3.org/2000/svg" xmlns:xlink="http://www.w3.org/1999/xlink">
    <!-- Generator: Sketch 43.1 (39012) - http://www.bohemiancoding.com/sketch -->
    <title>fxm-network-logo</title>
    <desc>Created with Sketch.</desc>
    <defs></defs>
    <g id="Page-1" stroke="none" stroke-width="1" fill="none" fill-rule="evenodd">
        <g id="fxm-network-logo" fill-rule="nonzero" fill="#000000">
            <g id="FXM" transform="translate(11.000000, 10.000000)">
                <path d="M48.4210526,-2.61778903e-14 L48.4210526,19.9029895 L41.7021474,19.9029895 L41.7021474,10.1049895 C40.1909263,12.2524632 37.0870884,17.7298526 37.0870884,17.7298526 L29.4433895,5.74370526 L26.8785263,9.49052632 L33.1364632,19.9029895 L25.3392211,19.9029895 C25.3392211,19.9029895 23.7151789,16.7735368 22.8750737,15.2342316 C22.0126947,16.7609474 20.3668632,19.9029895 20.3668632,19.9029895 L12.5662316,19.9029895 C14.6604421,16.4224842 18.9277895,9.5404 18.9277895,9.5404 L16.3096632,5.64008421 L6.92614737,5.64008421 L6.92614737,8.00109474 L13.6978316,8.00109474 L13.6978316,13.4412 L6.92614737,13.4412 L6.92614737,19.9029895 L0,19.9029895 L0,-2.61778903e-14 L20.3102105,-2.61778903e-14 L22.8750737,4.36128421 L25.3392211,-2.61778903e-14 L32.7258526,-2.61778903e-14 C34.2811368,2.18863158 35.5661832,4.64648421 37.0870884,6.8724 C38.5538105,4.61549474 39.9013684,2.24576842 41.3772421,-2.61778903e-14 L48.4210526,-2.61778903e-14 Z" id="Shape"></path>
            </g>
        </g>
    </g>
</svg>