<svg width="212" height="48" viewBox="0 0 212 48" fill="none" xmlns="http://www.w3.org/2000/svg">
<path fill-rule="evenodd" clip-rule="evenodd" d="M4.51018 28.4049H6.66541C8.79765 28.4049 10.5075 29.4008 10.5075 31.9843V38.1297H7.13238V32.4263C7.13238 31.922 6.72839 31.5132 6.23005 31.5132H4.27023C3.77166 31.5132 3.36726 31.9218 3.36647 32.4263V38.1297H0V23.9939H3.37078V28.6113C3.37078 28.6113 3.75297 28.4049 4.51018 28.4049ZM29.3471 38.1297H25.9792V23.9939H29.3471V38.1297ZM19.7785 34.7551C19.9477 34.5835 20.0426 34.3509 20.0423 34.1085V28.405H23.4116V34.3876C23.4116 36.5902 22.1501 38.1241 20.0423 38.1241H16.7448C14.4573 38.1241 12.9085 36.8359 12.9085 34.3876V28.405H16.2778V34.1085C16.2774 34.3509 16.3723 34.5835 16.5416 34.7551C16.7108 34.9266 16.9406 35.023 17.1801 35.023H19.1399C19.3795 35.023 19.6092 34.9266 19.7785 34.7551ZM39.0442 28.405V34.1085C39.0449 34.351 38.9502 34.5839 38.7808 34.7555C38.6115 34.9271 38.3815 35.0234 38.1418 35.023H36.182C35.9425 35.023 35.7127 34.9266 35.5435 34.7551C35.3742 34.5835 35.2793 34.3509 35.2797 34.1085V28.405H31.9161V34.3876C31.9161 36.8359 33.465 38.1241 35.7524 38.1241H39.0571C41.1635 38.1241 42.425 36.5902 42.425 34.3876V28.405H39.0442Z" fill="#04CD6A"/>
<path fill-rule="evenodd" clip-rule="evenodd" d="M84.4669 32.579C84.5229 33.1024 84.3907 34.091 84.3678 34.2218C84.2922 34.5883 84.1909 34.9488 84.0646 35.3006C83.9008 35.6802 83.7176 36.051 83.5157 36.4113C83.0875 37.1219 82.5654 37.77 81.964 38.3377C80.2642 39.8235 77.6319 40.6711 75.3733 40.9546C73.7366 41.1507 72.0804 41.1017 70.4579 40.8093C69.899 40.706 69.0671 40.5185 69.0671 40.5185C69.0671 40.5185 69.0671 40.8543 69.0441 41.0913C69.0135 41.2574 68.9653 41.4198 68.9004 41.5754C68.79 41.8145 68.5658 41.9793 68.307 42.0116C67.9711 42.0942 67.6187 42.0766 67.2926 41.9607C66.7768 41.7397 66.5914 41.2527 66.5009 40.6886C66.4276 40.2379 66.3572 39.4543 66.3572 39.4543C66.3572 39.4543 65.9721 39.2696 65.6489 39.1068C64.6851 38.6214 63.7653 38.0512 62.9002 37.4029C62.6732 37.2313 61.6947 36.4026 61.4792 36.1962C60.8743 35.6146 60.3297 35.0331 59.9145 34.2945C59.5927 33.713 59.5007 33.1998 59.745 32.5862C60.0826 31.7299 61.2967 31.0844 62.1258 30.718C62.7364 30.4447 64.6316 29.8196 65.419 29.7003C65.7897 29.6465 66.3673 29.5419 66.4032 29.5186C66.416 29.509 66.4276 29.4977 66.4377 29.4852C66.4564 29.459 66.4865 28.6129 66.4793 28.3017C66.4722 27.9906 66.7035 25.9945 66.7782 25.5714C66.817 25.3417 66.988 24.4606 67.1633 24.2295C67.2768 24.0739 67.4794 24.0841 67.6446 24.1888C68.5469 24.7558 68.8214 26.7272 68.8889 27.7289C68.9291 28.3395 68.9492 29.2584 68.9492 29.2584C68.9492 29.2584 69.9852 29.2278 70.6217 29.2453C71.2736 29.2761 71.9229 29.3489 72.5657 29.4634C73.389 29.5957 74.9925 29.9504 75.9121 30.4229C76.6707 30.8111 77.3791 31.4653 77.609 32.1588C77.8216 32.7941 77.79 33.2332 77.4653 33.806C77.1003 34.453 76.4078 34.9342 75.708 34.9691C75.4983 34.9807 74.7138 34.8761 74.4724 34.6783C74.3843 34.6007 74.3747 34.4656 74.4508 34.3759C74.6477 34.2498 74.8511 34.1343 75.06 34.0299C75.164 33.9753 75.2606 33.9074 75.3474 33.8278C75.527 33.6665 75.6894 33.4905 75.6721 33.2841C75.6463 33.0151 75.3661 32.8479 75.0974 32.7433C73.8416 32.2388 71.3344 31.8186 70.1217 31.7459C69.6475 31.7183 68.9722 31.6936 68.9722 31.6936L69.1159 38.4656C69.1159 38.4656 69.6734 38.5732 70.1131 38.6445C70.3659 38.6837 71.4349 38.7811 71.718 38.7899C73.8804 38.848 76.2943 38.6517 78.2785 37.7038C79.1492 37.288 79.9495 36.7719 80.5544 36.0726C81.3768 35.101 81.7754 33.8339 81.6593 32.5601C81.5387 31.1149 80.5329 29.3994 79.7311 28.357C77.6118 25.5946 73.9839 23.3295 70.7812 21.9993C67.5182 20.6414 64.2925 19.8606 60.8283 19.7298C59.9361 19.6964 57.9892 19.7414 57.0049 20.0206C56.9441 20.0372 56.8832 20.0554 56.8238 20.0732L56.8237 20.0732L56.8237 20.0732L56.8237 20.0732L56.8237 20.0732L56.8237 20.0732C56.7429 20.0973 56.6646 20.1207 56.5926 20.1383C56.4832 20.166 56.3786 20.2101 56.2822 20.2692C56.2649 20.2841 56.2486 20.3001 56.2334 20.3171C56.2334 20.3171 56.2937 20.3506 56.3512 20.3768C56.413 20.4033 56.5908 20.4238 56.7728 20.4448C56.8994 20.4595 57.0282 20.4743 57.1213 20.4916C57.3206 20.5183 57.5006 20.6259 57.6199 20.7897C57.7103 20.898 57.7103 21.0564 57.6199 21.1647C57.3972 21.4395 56.5581 21.393 56.1831 21.3334C55.8081 21.2738 55.321 21.1531 55.2333 20.8144C55.1313 20.416 55.3181 20.0249 55.5207 19.6644C55.9273 18.9374 56.5092 18.5653 57.3613 18.3297C58.6297 17.9881 59.9299 17.7815 61.2407 17.7133C63.827 17.6144 66.2696 18.0724 68.7783 18.8415C70.3807 19.345 71.9464 19.9615 73.4637 20.6864C74.6318 21.2722 75.7685 21.9201 76.869 22.6273C77.1449 22.812 78.7555 24.0085 79.0055 24.2193C79.5285 24.6555 80.211 25.2719 80.7053 25.7677C81.6622 26.7272 82.8519 28.1971 83.4353 29.3645C83.4901 29.4717 83.5392 29.5778 83.589 29.6858L83.589 29.6858L83.5891 29.6858C83.6697 29.8605 83.7527 30.0401 83.8663 30.2368C84.0109 30.5504 84.1347 30.8734 84.237 31.2036L84.2439 31.2339C84.2866 31.421 84.3439 31.6724 84.3534 31.6834C84.4095 31.9797 84.4474 32.2793 84.4669 32.5804V32.579ZM85.1077 27.6229C85.1877 27.4557 85.2799 27.2949 85.3836 27.1416H85.3965C85.408 27.1285 85.4698 27.1605 85.5172 27.1983C85.6804 27.258 85.8487 27.3018 86.0201 27.3292C86.1213 27.336 86.2256 27.3535 86.3309 27.3712L86.3309 27.3712L86.3309 27.3712L86.3309 27.3712L86.331 27.3712L86.331 27.3712L86.331 27.3712L86.331 27.3712L86.3311 27.3712C86.4274 27.3874 86.5246 27.4037 86.6207 27.412C87.2644 27.4731 88.1423 27.2608 88.717 27.0369C90.0102 26.5252 91.0159 25.7881 92.0217 24.7413C92.6122 24.1336 93.1309 23.1348 92.9398 22.2247C92.8513 21.7918 92.6128 21.4051 92.2674 21.1343C91.9838 20.9141 91.6571 20.7575 91.309 20.6749C91.2237 20.6663 91.1398 20.6473 91.059 20.6182C91.0033 20.5732 90.9548 20.5198 90.9154 20.4597C90.6415 20.1515 90.2957 19.9176 89.9096 19.7793C88.9182 19.4304 87.5949 19.6935 86.6925 20.0788C85.7482 20.4762 84.8951 21.0667 84.1867 21.8132C83.52 22.5314 83.0057 23.4372 83.0603 24.4215C83.0886 24.8001 83.1897 25.1694 83.3577 25.5089C83.4042 25.5938 83.4652 25.6808 83.5271 25.7689L83.5271 25.7689C83.6391 25.9285 83.7535 26.0917 83.7887 26.2519C83.8055 26.4239 83.8084 26.597 83.7973 26.7694C83.8088 27.1804 83.9827 27.5695 84.2801 27.8497C84.4928 28.0387 84.6796 28.0314 84.8994 27.8671C84.9824 27.7986 85.0529 27.7159 85.1077 27.6229ZM85.0834 23.9967C84.8549 24.3195 84.5675 24.7455 84.5675 24.7455L84.5632 24.7484C84.5632 24.7484 84.5043 24.6204 84.4655 24.5259C84.204 23.8528 84.7917 23.0997 85.3276 22.6359C85.6523 22.3539 86.3018 21.9163 86.7443 21.829C86.9311 21.7912 87.2602 21.7563 87.2602 21.7563C87.2602 21.7563 87.0489 21.9323 86.8708 22.0849C86.215 22.6619 85.6164 23.3022 85.0834 23.9967ZM94.94 32.5441L94.8351 32.5295V32.531L91.2014 32.0948C91.1665 32.0921 91.1318 32.0863 91.0979 32.0774L91.0793 32.0737L91.0622 32.0707L91.0117 32.0622C90.7672 32.0216 90.2373 31.9339 90.4614 31.6805C90.5914 31.5915 90.7382 31.5306 90.8925 31.5017C92.151 31.1553 93.666 31.1031 95.0796 31.0544L95.0797 31.0544L95.0797 31.0544L95.0798 31.0544L95.0799 31.0543L95.0799 31.0543L95.08 31.0543L95.08 31.0543L95.0801 31.0543L95.0802 31.0543H95.0803C95.5175 31.0393 95.9451 31.0245 96.3524 31.0015L96.3629 31.0009C96.7599 30.9759 97.6176 30.9218 98.0378 30.7878C98.4542 30.6773 98.7747 30.3407 98.8683 29.9155C98.9142 29.6771 98.8022 29.5637 98.5809 29.4444C97.1484 28.6812 94.7934 28.6783 93.3365 28.8629C91.8278 29.0505 89.8163 29.5259 88.9542 30.7776C88.6266 31.256 88.4413 31.9901 88.5849 32.5877C88.689 32.9271 88.9309 33.2058 89.2502 33.3539C89.5692 33.4813 89.9036 33.5654 90.2445 33.6039C90.512 33.6443 91.4724 33.7273 92.2851 33.7976C92.4675 33.8134 92.6425 33.8285 92.8006 33.8424C93.6267 33.9107 95.236 34.0895 96.0981 34.4544C96.0981 34.4544 96.9142 34.7452 96.9142 35.2192C96.8892 35.448 96.7586 35.6513 96.5622 35.7673C95.2748 36.6934 93.5118 36.9565 91.9313 36.9304C91.4092 36.9303 90.8931 36.8184 90.4169 36.6018C90.1856 36.5 89.8838 36.2558 89.9269 35.9955C90.0203 35.4881 90.5677 35.3587 91.0261 35.4038C91.3144 35.4452 91.5963 35.5233 91.8652 35.6364C92.0776 35.7211 92.2658 35.803 92.4387 35.8784C93.0882 36.1611 93.5232 36.3506 94.2245 36.2427C94.5549 36.1874 95.7044 35.9403 95.8581 35.4605C95.8877 35.3401 95.849 35.2131 95.7575 35.1305C95.6297 35.0054 94.9386 34.7336 94.7518 34.6652C93.8841 34.3932 92.9874 34.2272 92.0807 34.1709C91.1454 34.1375 89.9011 34.3149 89.3263 35.1159C88.9724 35.6262 88.9438 36.2981 89.2531 36.8373C89.6568 37.5613 90.4614 38.1211 91.1209 38.4482C92.2679 39.0079 93.5447 39.2382 94.8121 39.114C95.4884 39.0525 96.1488 38.8714 96.7633 38.579C97.3668 38.2853 98.0277 37.7314 98.3295 37.0699C98.7317 36.1407 98.7054 35.0786 98.2576 34.1709C98.0189 33.6689 97.6048 33.2742 97.0952 33.0631C96.4989 32.7956 95.7259 32.6531 94.94 32.5441ZM87.5403 25.5539C88.3754 25.4925 89.1866 25.2442 89.9153 24.8269C90.6337 24.4184 91.7027 23.6188 91.5921 22.6796C91.5601 22.3939 91.3767 22.1486 91.1136 22.0399C90.7903 21.8945 90.6237 21.9207 90.2113 22.0399C89.9585 22.1066 89.7165 22.21 89.4929 22.3467C88.4902 22.9848 87.5968 23.7837 86.8477 24.7121C86.7964 24.7821 86.7441 24.8551 86.6926 24.9269C86.5997 25.0563 86.5097 25.1818 86.4339 25.2791C86.3606 25.3707 86.3032 25.4565 86.3103 25.4797C86.3362 25.5728 87.2084 25.564 87.5388 25.5422L87.5403 25.5539ZM86.546 29.1593C86.5978 29.1702 86.6488 29.1853 86.6983 29.2044C87.1509 29.3788 87.3377 29.8034 87.4497 30.27C87.7084 31.3517 87.819 33.7477 87.8621 34.6854C87.877 35.0331 87.8888 35.3784 87.9005 35.7225C87.9125 36.0748 87.9244 36.426 87.9397 36.7775L87.9459 36.9206C87.9706 37.4838 88.0018 38.1939 87.8894 38.701C87.8403 38.9232 87.7106 39.1188 87.5259 39.2491C87.3104 39.3944 86.8204 39.3944 86.5517 39.3421C85.8879 39.1967 85.6724 38.7722 85.5776 38.1078C85.352 36.5231 85.4612 33.4133 85.5934 32.1004C85.6379 31.6643 85.7988 30.2773 86.0244 29.6958C86.1006 29.4995 86.2629 29.104 86.5474 29.1593H86.546ZM66.3544 31.8054L66.3544 31.8054V31.804L66.3544 31.8054ZM66.3544 31.8054C66.3472 31.8059 65.3649 31.8769 64.6877 31.9508C63.8256 32.0453 62.1963 32.3288 61.258 32.669C60.9779 32.7708 60.406 33.0121 60.3557 33.3043C60.3054 33.5966 60.4908 33.8452 60.6977 34.0909C60.8169 34.2363 61.4951 34.8934 61.6848 35.0533C62.7902 35.9388 63.9996 36.6825 65.2855 37.2675C65.6935 37.4391 66.3688 37.6833 66.3688 37.6833C66.3688 37.6833 66.3185 35.7366 66.3286 33.8175C66.3286 32.8224 66.3533 31.8481 66.3544 31.8054ZM112.578 31.5176C112.578 31.5176 115.762 31.3722 116.974 31.0814L116.965 31.0843C117.586 30.936 117.221 30.3182 117.221 30.3182C116.458 28.7902 115.596 28.8774 115.596 28.8774C113.091 28.7902 109.452 29.4633 109.054 29.6625C108.683 29.8326 108.723 30.1161 109.208 30.734C109.728 31.3766 110.601 31.3155 110.601 31.3155L109.834 32.922C109.208 32.9671 108.993 33.1648 108.993 33.1648C108.631 33.5544 109.13 34.7073 109.13 34.7073C109.13 34.7073 108.042 37.1702 108.831 38.4787C109.673 39.8525 110.679 39.7871 110.679 39.7871C112.578 39.9281 115.716 37.9087 115.883 37.2414C116.022 36.702 115.532 36.1118 115.101 36.0027C114.692 35.917 111.557 36.5116 111.18 36.6134C110.778 36.7238 110.958 36.34 110.958 36.34L111.442 34.6812C111.442 34.6812 114.44 34.5634 114.872 34.4907C115.278 34.4195 115.303 34.1287 115.303 34.1287C115.334 33.824 115.346 33.5176 115.34 33.2113C115.295 32.7301 114.92 32.7752 114.92 32.7752C113.764 32.6516 112.172 32.7897 112.172 32.7897L112.578 31.5176ZM107.554 37.2575C107.232 38.0208 106.384 38.8364 105.331 38.3305C104.278 37.8245 102.636 34.3891 102.636 34.3891C102.636 34.3891 102.006 33.1097 101.885 33.1431C101.885 33.1431 101.75 32.8945 101.667 34.2917C101.648 34.6176 101.638 35.015 101.628 35.4381V35.4383C101.595 36.8286 101.555 38.4968 101.134 38.8233C100.615 39.2595 99.9846 39.0821 99.6599 38.582C99.3624 38.0877 99.2389 36.9173 99.4012 34.8601C99.5909 32.7986 100.065 30.6061 100.669 29.917C101.262 29.2394 101.741 29.7144 101.936 29.9074L101.946 29.917C101.946 29.917 102.753 30.657 104.085 32.8247L104.321 33.2274C104.321 33.2274 105.531 35.2817 105.657 35.2774C105.657 35.2774 105.756 35.3719 105.845 35.3036C105.972 35.2672 105.92 34.6086 105.92 34.6086C105.92 34.6086 105.669 32.3697 104.565 28.5795C104.468 28.2842 104.45 27.9684 104.511 27.6635C104.623 27.2158 105.067 27.4251 105.067 27.4251C105.067 27.4251 106.778 28.2974 107.608 31.115C108.439 33.9326 107.878 36.4797 107.554 37.2488V37.2575ZM120.066 39.1461C122.988 39.8251 125.186 36.9464 125.965 35.5696V35.5638C126.424 34.738 126.671 33.636 126.671 32.5994C126.669 31.4174 126.349 30.3212 125.653 29.8182C123.582 28.3628 120.238 32.9759 118.767 35.2643C118.548 34.0983 119.327 32.6212 119.327 32.6212C119.327 32.6212 120.583 30.4259 120.752 29.9897C120.922 29.5536 121.001 28.6231 120.807 28.5359C120.613 28.4486 120.277 28.7394 120.277 28.7394C117.472 31.2851 117.081 34.1099 117.081 34.1099C116.816 35.6379 117.126 36.7051 117.58 37.4538C116.021 40.8137 115.259 43.7446 115.462 45.4776C115.65 46.7934 116.586 47.7471 117.152 47.9492C117.724 48.1905 117.826 47.4941 117.826 47.4941C118.29 43.9089 119.1 41.513 120.066 39.1461ZM125.362 31.948C125.362 31.948 125.245 31.0379 124.367 32.0396C123.103 33.4191 122.021 34.9596 121.15 36.6221C122.3 36.4913 123.413 35.8589 123.748 35.5361C124.294 35.0462 125.566 33.7159 125.362 31.948ZM136.71 31.7402H142.065H142.069C142.184 31.7398 142.295 31.7862 142.376 31.869C142.458 31.9518 142.503 32.0641 142.502 32.1808V33.3075C142.502 33.5484 142.309 33.7437 142.07 33.7437H136.787V34.5055C136.794 36.0186 136.719 37.5309 136.563 39.0357C136.542 39.2606 136.355 39.4321 136.132 39.4311H134.983C134.869 39.431 134.76 39.3818 134.684 39.2959C134.606 39.2089 134.569 39.0927 134.58 38.9761C134.741 37.4915 134.819 35.9989 134.812 34.5055V33.7437H129.586C129.348 33.7437 129.155 33.5484 129.155 33.3075V32.1808C129.155 31.9399 129.348 31.7446 129.586 31.7446H134.738C134.633 29.9378 134.405 28.1405 134.056 26.3653C134.034 26.2571 134.062 26.1449 134.132 26.06C134.201 25.9759 134.303 25.927 134.411 25.9263H135.645C135.837 25.927 136.001 26.0654 136.037 26.2563C136.378 28.0678 136.602 29.8995 136.71 31.7402Z" fill="#121D4D"/>
<path d="M135.345 23.27C130.195 10.4596 118.469 1.57866 104.871 0.189413C91.2722 -1.19984 78.0287 5.13015 70.4521 16.6404C70.3761 16.7535 70.357 16.8961 70.4004 17.0256C70.445 17.155 70.5455 17.2567 70.6734 17.3019L71.6332 17.629C71.6889 17.647 71.7471 17.6563 71.8056 17.6566C71.9837 17.6572 72.1502 17.5677 72.2496 17.4182C78.7517 7.71989 89.5822 1.91371 101.164 1.91717C115.21 1.92006 127.891 10.4263 133.363 23.5157C133.442 23.7045 133.625 23.8271 133.827 23.8268H134.977C135.11 23.8264 135.234 23.7593 135.308 23.6478C135.382 23.5363 135.397 23.3947 135.348 23.27H135.345Z" fill="url(#paint0_radial)"/>
<path d="M187.018 28.0634H170.677C169.01 28.0634 167.892 28.9648 167.733 30.3271C167.664 30.8112 167.618 31.2735 167.618 31.2735H189.392C189.392 31.2735 189.438 30.9508 189.461 30.6731C189.62 29.3108 189.073 28.0562 187.018 28.0562" fill="black"/>
<path d="M189.255 32.4744C189.255 32.4744 189.209 32.9105 189.14 33.4208C189.004 34.3905 188.297 35.1306 186.995 35.1306H182.363L181.837 39.4485H178.14L178.985 32.4991H189.255V32.4744Z" fill="black"/>
<path d="M157.394 28.0635L157.006 31.2503H166.888L167.276 28.0635H157.394Z" fill="black"/>
<path d="M156.869 32.4614L156.024 39.4356H165.884L166.249 36.4101H160.088L160.247 35.0944H166.41L166.729 32.4614H156.869Z" fill="black"/>
<path d="M190.532 28.0635H198.589C199.867 28.0635 201.191 28.6639 200.918 30.7662C200.872 31.1355 200.849 31.2503 200.849 31.2503H190.145L190.532 28.0635Z" fill="black"/>
<path d="M189.163 39.4253H192.839L193.682 32.4744H189.985L189.163 39.4253Z" fill="black"/>
<path d="M196.171 39.4253H199.867L200.689 32.4744H197.014L196.171 39.4253Z" fill="black"/>
<path d="M175.584 32.4745H167.481C167.208 34.2991 168.098 35.1074 169.349 35.1074H174.347L174.187 36.4159H167.003L166.637 39.4414H174.785C175.036 39.4181 176.885 39.3716 177.5 37.8421C177.706 37.3348 177.888 35.5552 177.931 35.186C178.206 32.9688 176.745 32.4614 175.581 32.4614" fill="black"/>
<path d="M206.636 29.4651L206.294 32.3059H203.556L203.214 35.1235H205.974L205.609 38.0094H208.553L208.896 35.1235H211.681L212 32.3059H209.238L209.58 29.4651H206.636Z" fill="#EFB53E"/>
<defs>
<radialGradient id="paint0_radial" cx="0" cy="0" r="1" gradientUnits="userSpaceOnUse" gradientTransform="translate(129.5 29) scale(70.5 66.6956)">
<stop offset="0.09" stop-color="#121D4D"/>
<stop offset="0.850062" stop-color="#00DCFF" stop-opacity="0"/>
</radialGradient>
</defs>
</svg>
