<?xml version="1.0" encoding="UTF-8"?>
<svg width="70px" height="40px" viewBox="0 0 70 40" version="1.1" xmlns="http://www.w3.org/2000/svg" xmlns:xlink="http://www.w3.org/1999/xlink">
    <!-- Generator: Sketch 43.1 (39012) - http://www.bohemiancoding.com/sketch -->
    <title>cnbc-network-logo</title>
    <desc>Created with Sketch.</desc>
    <defs></defs>
    <g id="Page-1" stroke="none" stroke-width="1" fill="none" fill-rule="evenodd">
        <g id="cnbc-network-logo" fill-rule="nonzero">
            <g id="CNBC_logo" transform="translate(18.000000, 5.000000)">
                <g id="Group" transform="translate(0.000000, 20.021390)" fill="#000000">
                    <path d="M6.04942029,2.09390374 C5.92210145,1.46746524 5.41574275,1.30126203 4.84889493,1.24812834 C3.01811594,1.07602139 2.69347826,2.46417112 2.69347826,3.05031016 C2.69347826,4.05304813 2.98210145,4.88213904 4.77952899,4.88213904 C5.11101449,4.88213904 6.02621377,4.536 6.02621377,3.97373262 L8.6111413,3.97373262 C8.50690217,5.64166845 5.74253623,6.04119786 4.53693841,6.04119786 C2.03887681,6.04119786 -0.0998007246,5.56941176 0.00355072464,3.07277005 C0.0773550725,1.29073797 1.73719203,0.040171123 5.03898551,0.118331551 C6.87952899,0.16171123 8.64728261,0.743743316 8.6548913,2.09390374 L6.04942029,2.09390374 Z" id="Shape"></path>
                    <path d="M31.9402899,2.09390374 C31.812971,1.46746524 31.3064855,1.30126203 30.7397645,1.24812834 C28.9088587,1.07589305 28.5844746,2.46417112 28.5844746,3.05018182 C28.5844746,4.05291979 28.872971,4.8820107 30.6706522,4.8820107 C31.0017572,4.8820107 31.9167029,4.53587166 31.9167029,3.97360428 L34.5020109,3.97360428 C34.398279,5.64154011 31.6334058,6.04106952 30.4276812,6.04106952 C27.9296196,6.04106952 25.790942,5.56928342 25.8944203,3.07264171 C25.9682246,1.29060963 27.628442,0.0400427807 30.9294746,0.118203209 C32.7702717,0.161582888 34.5381522,0.743614973 34.5458877,2.0937754 L31.9402899,2.0937754 L31.9402899,2.09390374 Z" id="Shape"></path>
                    <polygon id="Shape" points="9.1163587 0.237561497 12.4720471 0.237561497 15.3351993 4.30986096 15.3584058 4.30986096 15.3584058 0.237561497 17.5091304 0.237561497 17.5091304 5.89219251 14.2942029 5.89219251 11.2905435 1.81989305 11.2669565 1.81989305 11.2669565 5.89219251 9.11623188 5.89219251 9.11623188 0.237561497"></polygon>
                    <path d="M18.1728623,0.237561497 L22.2489674,0.237561497 C24.2078261,0.237561497 25.3600362,0.792770053 25.3600362,1.63148663 C25.3600362,2.12675936 24.8777717,2.7384385 23.8024094,2.91837433 L23.8024094,2.93416043 C25.0972826,3.01232086 25.5752355,3.84282353 25.5752355,4.3406631 C25.5752355,5.33736898 24.4518116,5.89206417 22.2607609,5.89206417 L18.1728623,5.89206417 L18.1728623,0.237561497 L18.1728623,0.237561497 Z M20.5324457,2.43465241 L21.2080978,2.43465241 C22.2488406,2.43465241 22.8009783,2.35238503 22.8009783,1.91371123 C22.8009783,1.44397861 22.3415399,1.28701604 21.4047826,1.28701604 L20.5324457,1.28701604 L20.5324457,2.43465241 L20.5324457,2.43465241 Z M20.5324457,4.70720856 L21.2080978,4.70720856 C22.4623913,4.70720856 22.9225906,4.57386096 22.9225906,4.13544385 C22.9225906,3.66545455 22.3415399,3.50849198 21.4047826,3.50849198 L20.5324457,3.50849198 L20.5324457,4.70720856 L20.5324457,4.70720856 Z" id="Shape"></path>
                </g>
                <path d="M31.6227536,19.3348877 C31.0731522,19.5813048 30.4645833,19.6910374 29.815942,19.6910374 L3.83858696,19.670246 C2.36972826,19.5542246 0.927119565,18.3276578 0.516884058,16.8612193 C0.0803985507,15.3947807 0.503695652,13.8802139 1.46315217,12.8113797 C2.38951087,11.8453476 3.58052536,11.4411979 4.90393116,11.5917433 C3.65990942,10.7351872 3.13719203,9.31662032 3.31612319,7.79550802 C3.48148551,6.4733262 4.4275,5.1848984 5.63855072,4.65754011 C7.02155797,4.02699465 8.76813406,4.36966845 9.85338768,5.43170053 C9.62855072,4.65754011 9.50934783,3.54737968 9.82041667,2.75255615 C10.1905797,1.49878075 11.3947826,0.381946524 12.6190217,0.121411765 C14.2534964,-0.234737968 15.8083333,0.388877005 16.7477536,1.80718717 C16.926558,2.07439572 17.0325725,2.376 17.1713043,2.65694118 C17.6413949,1.30010695 18.9976449,0.176213904 20.3743116,0.032342246 C21.7967572,-0.15259893 23.1401993,0.464085561 24.0333333,1.67679144 C24.7281341,2.68427807 24.9660326,4.18472727 24.5163587,5.3975615 L24.5693659,5.3975615 C25.6012319,4.45899465 27.1630435,4.11632086 28.4930435,4.63700535 C29.763442,5.06181818 30.841721,6.43212834 31.0139312,7.78203209 C31.2056703,9.27580749 30.7028623,10.5845134 29.5847645,11.5508021 C31.278587,11.448 32.8863043,12.3592299 33.5811051,13.9556791 C34.1901812,15.3469091 34.0117572,17.2103102 32.9792572,18.3411337 C32.5624275,18.7662032 32.1188406,19.1223529 31.6227536,19.3348877 Z" id="Shape" fill="#FFFFFF"></path>
                <path d="M28.8700543,11.5918717 L19.2623007,18.0945882 L22.4980254,10.310631 L24.0330797,6.68573262 C24.6549638,5.5142246 25.8258152,4.76740107 27.1033152,4.74673797 C28.3270471,4.74673797 29.4124275,5.34301604 30.1005072,6.41185027 C30.8088768,7.48068449 30.848442,9.22806417 30.1401993,10.3107594 C29.8229167,10.8174545 29.3530797,11.2697326 28.8700543,11.5918717 Z" id="Shape" fill="#0089D0"></path>
                <path d="M24.0862138,5.45249198 L19.3352174,16.819893 L19.123442,15.5798503 L17.6942754,6.26091979 C17.6345471,5.69210695 17.8659783,5.21262032 18.3156522,4.89741176 L18.9975181,4.48633155 C19.037337,4.34233155 18.83875,4.29445989 18.7459239,4.24645989 L17.4094565,4.23285561 C17.3237319,2.88962567 17.9057971,1.67037433 19.0304891,0.93715508 C19.9040942,0.361283422 21.2340942,0.210737968 22.2067391,0.676620321 C23.4706703,1.19743316 24.3503623,2.56106952 24.3702717,3.95191444 C24.3638043,4.46579679 24.2778261,4.99341176 24.0862138,5.45249198 Z" id="Shape" fill="#6460AA"></path>
                <path d="M14.9616123,16.8613476 L10.2835326,5.4662246 C9.78047101,4.24645989 9.99211957,2.64308021 10.8524094,1.65625668 C11.7720471,0.621561497 13.0689493,0.183016043 14.4056703,0.532748663 C15.5370833,0.813561497 16.5957065,1.90986096 16.8738043,3.08149733 C17.0060688,3.52017112 16.9860326,4.04752941 16.9597826,4.52727273 L14.9616123,16.8613476 Z" id="Shape" fill="#CE1141"></path>
                <path d="M4.96365942,11.1807914 C4.0042029,10.3380963 3.57418478,9.21420321 3.71291667,7.91217112 C3.85177536,6.5966631 4.87768116,5.30849198 6.10166667,4.91114439 C7.35887681,4.51366845 8.72831522,4.82887701 9.64173913,5.78130481 C10.025471,6.15144385 10.2634964,6.58986096 10.4619565,7.0420107 L14.9816486,18.1149947 L4.96365942,11.1807914 Z" id="Shape" fill="#F37021"></path>
                <path d="M3.93673913,19.2700749 C2.68650362,19.1267166 1.72286232,18.4445775 1.13521739,17.284492 C0.54009058,16.113369 0.694673913,14.4515936 1.49485507,13.4130481 C2.36668478,12.3556364 3.62833333,11.8236578 4.89949275,12.0847059 C5.41751812,12.1692834 5.85197464,12.3949091 6.26043478,12.6546738 L15.9866304,19.2726417 L3.93673913,19.2700749 Z" id="Shape" fill="#FDB913"></path>
                <path d="M30.3420833,19.2700749 C31.5928261,19.1267166 32.5558333,18.4445775 33.1438587,17.284492 C33.7389855,16.113369 33.5842754,14.4515936 32.784221,13.4130481 C31.9121377,12.3556364 30.6504891,11.8236578 29.3790761,12.0847059 C28.8611775,12.1692834 28.4269746,12.3949091 28.0183877,12.6546738 L18.2925725,19.2726417 L30.3420833,19.2700749 Z" id="Shape" fill="#0DB14B"></path>
            </g>
        </g>
    </g>
</svg>