<?xml version="1.0" encoding="UTF-8"?>
<svg width="70px" height="40px" viewBox="0 0 70 40" version="1.1" xmlns="http://www.w3.org/2000/svg" xmlns:xlink="http://www.w3.org/1999/xlink">
    <!-- Generator: Sketch 43.1 (39012) - http://www.bohemiancoding.com/sketch -->
    <title>cnn-network-logo</title>
    <desc>Created with Sketch.</desc>
    <defs></defs>
    <g id="Page-1" stroke="none" stroke-width="1" fill="none" fill-rule="evenodd">
        <g id="cnn-network-logo" fill-rule="nonzero" fill="#B8242A">
            <g id="CNN" transform="translate(13.000000, 10.000000)">
                <path d="M42.2462639,18.6611933 C42.2462639,18.1897427 42.6334028,17.8138168 43.1233611,17.8138168 C43.6131667,17.8138168 44,18.1897427 44,18.6611933 C44,19.1329525 43.6131667,19.5090328 43.1233611,19.5090328 C42.6334028,19.5090328 42.2462639,19.1329525 42.2462639,18.6611933 Z M43.8657083,18.6611933 C43.8657083,18.2613476 43.5236389,17.944218 43.1233611,17.944218 C42.7227778,17.944218 42.3804028,18.2613476 42.3804028,18.6611933 C42.3804028,19.0611933 42.7227778,19.3786316 43.1233611,19.3786316 C43.5236389,19.3786316 43.8657083,19.0611933 43.8657083,18.6611933 Z M43.5392222,19.1196809 L43.3783472,19.1196809 L43.0918889,18.6917488 L42.9308611,18.6917488 L42.9308611,19.1196809 L42.7965695,19.1196809 L42.7965695,18.1915945 L43.2128889,18.1915945 C43.3850695,18.1915945 43.5526667,18.2374279 43.5526667,18.4372735 C43.5526667,18.6199896 43.4206667,18.6872735 43.2507778,18.6917488 L43.5392222,19.1196809 Z M43.0918889,18.5613476 C43.2104445,18.5613476 43.418375,18.5832612 43.418375,18.4352673 C43.418375,18.3395884 43.2886667,18.3224587 43.1856945,18.3224587 L42.9308611,18.3224587 L42.9308611,18.5613476 L43.0918889,18.5613476 Z M39.6320833,0.206255006 L42.0177083,0.206255006 L42.0177083,16.201934 C42.0174028,19.851934 37.3480555,21.6040945 34.8767222,17.3641254 C34.698125,17.0576439 30.8056528,10.2838784 30.8056528,10.2838784 L30.8056528,16.201934 C30.8053472,19.851934 26.1358472,21.6040945 23.6646667,17.3641254 C23.4860695,17.0576439 19.5932917,10.2838784 19.5932917,10.2838784 L19.5932917,15.8622735 C19.5965,18.3945266 18.1044722,19.7678291 15.7848472,19.7664402 L9.68244446,19.7664402 C4.33491667,19.7664402 0,15.3874279 0,9.9863476 C0,4.58465009 4.33491667,0.206255006 9.68244446,0.206255006 L12.8186667,0.206255006 L12.8186667,2.62122414 L9.67969446,2.62122414 C5.65934723,2.62122414 2.388375,5.92523649 2.388375,9.9863476 C2.388375,14.0473044 5.65934723,17.3511624 9.67969446,17.3511624 L15.7235833,17.3511624 C16.5084028,17.3511624 17.1969722,16.656718 17.1969722,15.8650513 L17.197125,3.83912538 C17.197125,3.51273649 17.4059722,3.33943402 17.5847222,3.2900513 C17.8627778,3.21366241 18.1519861,3.37955748 18.3580833,3.73326118 C18.3921528,3.79205748 20.5128611,7.48495871 22.3840833,10.7434464 C24.1926667,13.8920575 25.7543611,16.6118106 25.7748333,16.6469957 C26.2453889,17.4547118 26.945875,17.5959155 27.4443889,17.4588784 C28.0278472,17.2982303 28.419875,16.76536 28.4200278,16.1329525 L28.4200278,3.8392797 C28.4200278,3.56968093 28.5706667,3.35394019 28.8038055,3.28974266 C29.0785,3.2142797 29.3645,3.38017476 29.5699861,3.73326118 C29.602375,3.78881673 31.4670278,7.035576 33.2702639,10.1756995 C35.5020417,14.0624279 36.9667222,16.6125822 36.9868889,16.6469957 C37.3569167,17.2815636 37.8684167,17.5048661 38.3123889,17.5048661 C38.4336945,17.5048661 38.5496528,17.4881995 38.65675,17.4588784 C39.2400555,17.2979217 39.6320833,16.76536 39.6320833,16.1329525 L39.6320833,0.206255006 Z M3.18541667,9.9863476 C3.18541667,6.36921796 6.09888888,3.42647105 9.67969446,3.42647105 L12.8186667,3.42647105 L12.8186667,5.84174884 L9.70536112,5.84174884 C7.43920835,5.84174884 5.60220835,7.69715009 5.60220835,9.98619329 C5.60220835,12.2752365 7.43920835,14.1311007 9.70536112,14.1311007 L13.3706528,14.1311007 C13.7529028,14.1303291 14.0155278,13.8227673 14.0141528,13.4702982 L14.0141528,3.77014389 C14.0144583,0.120298216 18.6839583,-1.63186228 21.1552917,2.60795254 C21.3337361,2.91458834 25.2262083,9.68835378 25.2262083,9.68835378 L25.2262083,3.77014389 C25.2265139,0.120298216 29.8960139,-1.63186228 32.3668889,2.60795254 C32.5457917,2.91458834 36.4384167,9.68835378 36.4384167,9.68835378 L36.4384167,0.206255006 L38.8350417,0.206255006 L38.8350417,16.1329525 C38.8350417,16.4593414 38.6263472,16.6326439 38.4469861,16.6820266 C38.1692361,16.7585698 37.8800278,16.5925204 37.6737778,16.2389711 C37.6413889,16.1831068 35.7700139,12.9240019 33.9594445,9.77168711 C32.06775,6.47755129 30.2811667,3.36628587 30.2570278,3.32523649 C29.7867778,2.51829204 29.0901111,2.37662538 28.5945,2.51289081 C28.0131805,2.67276735 27.6231389,3.20594636 27.6228333,3.83912538 L27.6228333,16.1327982 C27.6228333,16.4593414 27.4139861,16.6326439 27.2352361,16.6820266 C26.9571805,16.7585698 26.6679722,16.5928291 26.461875,16.2392797 C26.4337639,16.1908229 24.8016389,13.348539 23.0734167,10.339434 C21.1054861,6.91227351 19.0703333,3.36844636 19.0449722,3.32523649 C18.5741111,2.51736612 17.8737778,2.37631673 17.3751111,2.51335377 C16.7918055,2.67400192 16.3999305,3.20687229 16.3999305,3.83912538 L16.3997778,15.8650513 C16.3997778,16.1800204 16.1044583,16.5457612 15.7235833,16.5457612 L9.67969446,16.5457612 C6.09888888,16.5457612 3.18541667,13.6034772 3.18541667,9.9863476 Z" id="Combined-Shape"></path>
            </g>
        </g>
    </g>
</svg>