<?xml version="1.0" encoding="UTF-8"?>
<svg width="70px" height="40px" viewBox="0 0 70 40" version="1.1" xmlns="http://www.w3.org/2000/svg" xmlns:xlink="http://www.w3.org/1999/xlink">
    <!-- Generator: Sketch 43.1 (39012) - http://www.bohemiancoding.com/sketch -->
    <title>ae-network-logo</title>
    <desc>Created with Sketch.</desc>
    <defs></defs>
    <g id="Page-1" stroke="none" stroke-width="1" fill="none" fill-rule="evenodd">
        <g id="ae-network-logo" fill-rule="nonzero" fill="#000000">
            <g id="A&amp;E" transform="translate(15.000000, 10.000000)">
                <path d="M24.2034426,0 C25.8031148,0.797385621 26.7306557,2.33986928 26.7306557,4.22222222 C26.7306557,5.79738562 25.8904918,6.8627451 24.6201639,7.77777778 C24.6201639,7.77777778 23.672459,8.49673203 23.154918,8.83660131 L27.0263934,13.3137255 C27.1406557,13.1568627 28.7268852,11.745098 28.7268852,11.745098 L38.7752459,11.745098 L38.7752459,7.89542484 L28.7,7.89542484 L28.7,4.44444444 L39.4406557,4.44444444 L39.4406557,0 L24.2034426,0 Z M30.662623,15.254902 L29.5737705,16.3202614 L32.6790164,19.9803922 L39.4406557,19.9869281 L39.4406557,15.2614379 L30.662623,15.254902 Z M18.5844262,0 L8.17311475,0 L0,19.9869281 L6.9095082,19.9803922 L8.24704918,16.2810458 L14.7263934,16.2810458 C14.4911475,15.5947712 14.3701639,14.8300654 14.3701639,13.9803922 C14.3701639,11.372549 16.2722951,9.67973856 18.0534426,8.50326797 C17.22,7.55555556 16.0101639,6.12418301 16.0101639,4.16993464 C16.0101639,2.29411765 16.9377049,0.790849673 18.5844262,0 L18.5844262,0 Z M9.29557377,11.8496732 L11.695082,4.92810458 L14.0206557,11.8496732 L9.29557377,11.8496732 Z M21.3872131,2.88235294 C20.4865574,2.88235294 20.0227869,3.45751634 20.0227869,4.21568627 C20.0227869,4.81045752 20.5336066,5.38562092 21.104918,6.05228758 C21.3334426,5.91503268 21.7972131,5.59477124 21.7972131,5.59477124 C22.3281967,5.22875817 22.744918,4.79084967 22.744918,4.21568627 C22.744918,3.45751634 22.2408197,2.88235294 21.3872131,2.88235294 L21.3872131,2.88235294 Z M20.2983607,11.4444444 C19.357377,12.1633987 18.6852459,13 18.6852459,14.1176471 C18.6852459,15.4117647 19.9488525,16.7647059 21.2998361,16.8562092 C22.2206557,16.9215686 23.1885246,16.5751634 23.9211475,15.9411765 L20.2983607,11.4444444 Z M40.4757377,19.0261438 C40.2001639,19.0261438 39.9716393,19.2287582 39.9716393,19.5098039 C39.9716393,19.7908497 40.2068852,19.9934641 40.4757377,19.9934641 C40.7445902,19.9934641 40.9798361,19.7908497 40.9798361,19.5098039 C40.9798361,19.2287582 40.7445902,19.0261438 40.4757377,19.0261438 L40.4757377,19.0261438 Z M40.4757377,19.9150327 C40.2472131,19.9150327 40.0657377,19.745098 40.0657377,19.5098039 C40.0657377,19.2810458 40.2404918,19.1045752 40.4757377,19.1045752 C40.7042623,19.1045752 40.8857377,19.2810458 40.8857377,19.5098039 C40.8790164,19.745098 40.7042623,19.9150327 40.4757377,19.9150327 L40.4757377,19.9150327 Z M40.7042623,19.3921569 C40.7042623,19.2810458 40.6370492,19.2352941 40.502623,19.2352941 L40.2808197,19.2352941 L40.2808197,19.7973856 L40.3681967,19.7973856 L40.3681967,19.5555556 L40.4690164,19.5555556 L40.6236066,19.7973856 L40.7177049,19.7973856 L40.5563934,19.5490196 C40.6437705,19.5359477 40.7042623,19.4901961 40.7042623,19.3921569 L40.7042623,19.3921569 Z M40.3681967,19.4771242 L40.3681967,19.3006536 L40.4891803,19.3006536 C40.59,19.3006536 40.6168852,19.3333333 40.6168852,19.3856209 C40.6168852,19.4444444 40.5832787,19.4771242 40.4757377,19.4771242 L40.3681967,19.4771242 L40.3681967,19.4771242 Z" id="Shape"></path>
            </g>
        </g>
    </g>
</svg>