<?xml version="1.0" encoding="UTF-8"?>
<svg width="70px" height="40px" viewBox="0 0 70 40" version="1.1" xmlns="http://www.w3.org/2000/svg" xmlns:xlink="http://www.w3.org/1999/xlink">
    <!-- Generator: Sketch 43.1 (39012) - http://www.bohemiancoding.com/sketch -->
    <title>bravo-network-logo</title>
    <desc>Created with Sketch.</desc>
    <defs></defs>
    <g id="Page-1" stroke="none" stroke-width="1" fill="none" fill-rule="evenodd">
        <g id="bravo-network-logo" fill-rule="nonzero" fill="#000000">
            <g id="BRAVOHD" transform="translate(18.000000, 8.000000)">
                <path d="M28.1772704,8.31717696 C27.2008303,8.31717696 26.4685003,9.03207058 26.4685003,10.0782564 C26.4685003,11.1070057 27.2008303,11.8393358 28.1772704,11.8393358 C29.1537104,11.8393358 29.9034769,11.1244421 29.9034769,10.0782564 C29.9034769,9.03207058 29.1537104,8.31717696 28.1772704,8.31717696 Z M5.78889465,8.31717696 C4.81245459,8.31717696 4.13243383,9.06694344 4.13243383,10.0782564 C4.13243383,11.0895693 4.79501816,11.8393358 5.78889465,11.8393358 C6.81764401,11.8393358 7.44535547,11.03726 7.44535547,10.0782564 C7.44535547,9.11925272 6.81764401,8.31717696 5.78889465,8.31717696 Z M0,0 L0,25.5792423 L7.00944473,18.9533991 L33.6,18.9533991 L33.6,0 L0,0 Z M5.92838609,12.9378308 C5.14374676,12.9378308 4.60321744,12.6239751 4.21961598,12.1357551 L4.21961598,12.780903 L3.03393876,12.780903 L3.03393876,5.70171251 L4.21961598,4.56834458 L4.21961598,7.96844837 C4.60321744,7.48022833 5.14374676,7.1663726 5.92838609,7.1663726 C7.4627919,7.1663726 8.66590555,8.36948625 8.66590555,10.0433835 C8.66590555,11.7347172 7.4627919,12.9378308 5.92838609,12.9378308 Z M12.902958,8.52641412 C12.658848,8.38692268 12.2926829,8.33461339 11.9962636,8.33461339 C11.2290607,8.33461339 10.6885314,8.85770628 10.6885314,9.79927348 L10.6885314,12.8157758 L9.50285418,12.8157758 L9.50285418,7.3407369 L10.6885314,7.3407369 L10.6885314,7.95101194 C11.0546964,7.42791905 11.6126622,7.18380903 12.2752465,7.18380903 C12.6414115,7.18380903 12.9203944,7.23611832 13.1993773,7.3407369 L12.902958,8.52641412 Z M18.8487805,12.7983394 L17.6631033,12.7983394 L17.6631033,12.1357551 C17.2795018,12.6239751 16.7215361,12.9378308 15.9368967,12.9378308 C14.4024909,12.9378308 13.1993773,11.7347172 13.1993773,10.0608199 C13.1993773,8.38692268 14.4024909,7.18380903 15.9368967,7.18380903 C16.7215361,7.18380903 17.2795018,7.49766476 17.6631033,7.9858848 L17.6631033,7.32330047 L18.8487805,7.32330047 L18.8487805,12.7983394 Z M23.05096,12.7983394 L21.6386092,12.7983394 L19.4416191,7.32330047 L20.7493513,7.32330047 L22.3709393,11.5603529 L23.9925272,7.32330047 L25.2653866,7.32330047 L23.05096,12.7983394 Z M28.1772704,12.9378308 C26.4859367,12.9378308 25.2305138,11.6998443 25.2305138,10.0608199 C25.2305138,8.42179554 26.4859367,7.18380903 28.1772704,7.18380903 C29.868604,7.18380903 31.124027,8.42179554 31.124027,10.0608199 C31.124027,11.6998443 29.868604,12.9378308 28.1772704,12.9378308 Z M16.0763882,8.31717696 C15.0476388,8.31717696 14.4199273,9.11925272 14.4199273,10.0782564 C14.4199273,11.03726 15.0476388,11.8393358 16.0763882,11.8393358 C17.0528282,11.8393358 17.732849,11.0895693 17.732849,10.0782564 C17.732849,9.06694344 17.0528282,8.31717696 16.0763882,8.31717696 Z" id="Shape"></path>
            </g>
        </g>
    </g>
</svg>